<svg id="Layer_1" data-name="Layer 1" xmlns="http://www.w3.org/2000/svg" viewBox="0 0 465.29 189.54">
  <g>
    <path d="M465.29,5.09c-3.46.82-4.94,3.43-6.09,6.26-1.93,4.7-2.53,9.7-3.13,14.69Q453,51.83,450,77.6c-.73,6-1.53,11.94-2.29,17.91a2.13,2.13,0,0,0,1.57,2.36c.42.11.84.19,1.4.3a2.87,2.87,0,0,1-.48.61c-5.56,4.18-11.57,7.36-18.55,8.43a18.2,18.2,0,0,1-7.84-.35,8.76,8.76,0,0,1-6.85-9.3v-1.8c-.36.52-.55.77-.7,1-5,8.86-17,12.58-26.2,8.1a14.91,14.91,0,0,1-7.23-7.51,35.6,35.6,0,0,1-3-16.7,38.74,38.74,0,0,1,8.09-22.14c4.42-5.78,10.44-9.12,17.15-11.45a44,44,0,0,1,12-2.44c2.28-.14,4.57-.18,6.8,1,.28-2.27.56-4.44.85-6.62.71-5.59,1.09-11.23,2.21-16.74,2-9.76,8.39-16.07,17.28-20A22.4,22.4,0,0,1,458.46.48a10.77,10.77,0,0,1,6,3.37,7.7,7.7,0,0,1,.57.71A3.71,3.71,0,0,1,465.29,5.09ZM421.87,54.94c-.15-1.69-.26-3.66-.54-5.62a2.34,2.34,0,0,0-1.9-2.29,2.68,2.68,0,0,0-2.75,1.65,8.88,8.88,0,0,0-.87,2,40.69,40.69,0,0,0-1.15,5q-1.35,10.59-2.52,21.18c-.44,3.93-.85,7.87-1.07,11.82a14.49,14.49,0,0,0,.61,4.81,2.29,2.29,0,0,0,4.08.76,5.68,5.68,0,0,0,1.15-2,20.88,20.88,0,0,0,1.15-4.18q1.1-8,2-16.07C420.69,66.43,421.25,60.84,421.87,54.94Z"/>
    <path d="M145,58.28c.27-.34.56-.68.83-1a38.82,38.82,0,0,1,7.82-8A19.23,19.23,0,0,1,169,46a14.84,14.84,0,0,1,10.61,8.12c2.19,4.15,2.92,8.7,3.44,13.29.9,7.87-1.26,14.92-5.49,21.55-4.9,7.64-11.27,13.35-20.1,16a46.34,46.34,0,0,1-17.79,1.76,60.32,60.32,0,0,1-9.45-1.48c-9.25-2.33-14.7-8.37-16.56-17.66a54.85,54.85,0,0,1-.34-17.39c1.79-14.73,3.68-29.44,5.51-44.16a27.78,27.78,0,0,0,.23-3.53c0-1.83-.73-2.46-2.58-2.25-1,.12-1.93.32-3.19.54a7.63,7.63,0,0,1,.59-1.22A43.28,43.28,0,0,1,124,9.43a19.69,19.69,0,0,1,14.58-3.17c6.55,1,10.49,5.66,10.45,12.51a78.63,78.63,0,0,1-.94,9.53c-1.11,9.17-2.27,18.34-3.37,27.53a19.38,19.38,0,0,0,0,2.41ZM140.93,96c0,1.37-.09,2.74,0,4.1a14,14,0,0,0,.68,3.44c.58,1.64,2.1,1.84,3.15.43a7.6,7.6,0,0,0,1.35-2.62,54.12,54.12,0,0,0,1.6-7.46c1.07-8.95,2-17.92,3-26.88.26-2.65.36-5.3.38-8a6.87,6.87,0,0,0-.82-2.23c-.77.31-1.79.41-2.26,1a15.7,15.7,0,0,0-2.65,4.2,24.76,24.76,0,0,0-1.1,5C142.57,76.54,141.63,86.25,140.93,96Z"/>
    <path d="M2.78,48.23c10.85-.8,21.73-1.06,32.73-1.67l-1,8Q32,74.3,29.54,94a5.36,5.36,0,0,0,.21,1.38c.47-.22,1.09-.32,1.34-.68a30.52,30.52,0,0,0,2.82-4.52,49.54,49.54,0,0,0,3.6-13.76c1-6.66,2-13.32,2.94-20,.21-1.44.23-2.95.39-4.43a2.43,2.43,0,0,0-.22-1.61,2.51,2.51,0,0,0-1.15-1.15,8.56,8.56,0,0,1-.89-.7c.83-.52,29.74-2.12,32.94-1.86L70.26,58.47l.3.13c.29-.32.59-.63.85-1a37.55,37.55,0,0,1,8-8.25c5.94-4.14,12.47-4.82,19.22-2.61a9.85,9.85,0,0,1,7.17,9.72,59.79,59.79,0,0,1-.71,9.43c-1.14,9.18-2.4,18.34-3.59,27.5-.07.6-.2,1.2-.28,1.81-.2,1.56.25,2.18,1.78,2.51l1.08.24a1.68,1.68,0,0,1-.3.52c-5.15,3.9-10.61,7.25-17.05,8.51a20.07,20.07,0,0,1-6.47.22c-5.16-.71-8.4-4.59-9-10.18-.4-3.62.28-7.13.82-10.66L76,60.66c.21-1.39-.35-1.88-1.59-1.28A15,15,0,0,0,71,61.45C65.76,66,60.53,70.6,55.43,75.27,47,83,38.8,90.86,30.39,98.56a50,50,0,0,1-7.23,5.4A18.53,18.53,0,0,1,9.6,106.37C2.92,105.14-.75,99.92.13,92.74,1.21,83.83,2.41,74.93,3.53,66c.58-4.6,1.06-9.22,1.66-13.83a2.3,2.3,0,0,0-1.35-2.68q-.57-.34-1.11-.75Z"/>
    <path d="M271,48.24c10.84-.83,21.7-1.05,32.73-1.69-.28,2.25-.54,4.33-.81,6.43l-5.16,41a5.47,5.47,0,0,0,.18,1.39c.49-.21,1.1-.29,1.35-.64a30.58,30.58,0,0,0,2.83-4.52c2-4.33,2.89-9,3.6-13.75,1-6.67,2-13.33,2.94-20,.21-1.5.23-3,.4-4.55a2.38,2.38,0,0,0-.23-1.55,2.44,2.44,0,0,0-1.12-1.1,2.07,2.07,0,0,1-.86-1c.6-.12,1.2-.2,1.81-.26q13-.6,26.08-1.18l5-.23c-.43,4.06-.86,8-1.28,11.88l.29.13.85-1a92.69,92.69,0,0,1,6.78-7.21c5.74-5,12.54-5.81,19.69-3.93a10.13,10.13,0,0,1,8,10.32,92.19,92.19,0,0,1-1,11.46c-1.13,9-2.38,17.88-3.57,26.82-.24,1.75.18,2.3,1.93,2.68.28.06.55.16.93.28a3.42,3.42,0,0,1-.42.52c-5.06,3.8-10.43,7-16.72,8.43a16.4,16.4,0,0,1-7.6.1c-4.61-1.1-7.56-4.81-8.15-10-.41-3.61.28-7.12.81-10.65l3.93-25.73c.21-1.45-.36-1.93-1.67-1.27a15.15,15.15,0,0,0-3.38,2.1c-5.17,4.5-10.33,9-15.38,13.67-8.41,7.74-16.68,15.64-25.12,23.36a48.93,48.93,0,0,1-7.23,5.4A18.4,18.4,0,0,1,277,106.16c-6.18-1.47-9.45-6.56-8.63-13.39,1.09-9,2.3-17.88,3.42-26.84.58-4.56,1.05-9.14,1.65-13.71a2.31,2.31,0,0,0-1.33-2.7,10.14,10.14,0,0,1-1.15-.83Z"/>
    <path d="M222.36,108.31a39,39,0,0,1-18.47-4.75c-14.17-7.93-18.8-24.07-10.85-38.2,5.38-9.58,13.74-15.48,24.18-18.46s20.5-2.41,30.09,2.77c8,4.33,13.22,11,14.64,20.12,1.28,8.25-1.14,15.63-6.1,22.18-6.68,8.8-15.76,13.72-26.56,15.61C227,108,224.67,108.05,222.36,108.31Zm9.38-53.77c-.23-2-.41-4.4-.83-6.79a2.2,2.2,0,0,0-1.53-1.54,2.57,2.57,0,0,0-2.07,1,8.36,8.36,0,0,0-1.49,3.16c-.78,3.64-1.57,7.3-2,11Q222,76.12,220.42,91c-.41,4-.45,8.11-.54,12.18a6.92,6.92,0,0,0,.7,2.85,1.71,1.71,0,0,0,.37.62,1.9,1.9,0,0,0,.58.44,1.77,1.77,0,0,0,.71.18,1.93,1.93,0,0,0,.72-.1,1.9,1.9,0,0,0,.82-.57,6.43,6.43,0,0,0,1.57-2.6,57.24,57.24,0,0,0,1.79-7.88c.94-7.12,1.71-14.28,2.49-21.42.73-6.55,1.38-13.1,2.11-20.11Z"/>
    <path d="M67.33,126.18c4.66,6.81,13.59,8.07,21.56,8.07L92.69,109H92c-2.73,17.58-16.91,16.32-25.95-3.7-6.32,4.18-21.28,12-21.28,20.79,0,26.83,46.84,22.55,46.84,47.52,0,18.17-36.73,11.56-36.73-6.9,0-6.7,3.4-11.66,11.17-15.35l-.68-.78-20.6,10.88C33.7,175,48.28,189.54,63.05,189.54c12,0,38.87-8.65,38.87-23.62,0-20.11-47.62-26.42-47.62-46.34,0-2.24.1-5.35,3.41-8.07l8-5.34A21.57,21.57,0,0,0,67.33,126.18Z"/>
    <path d="M103.63,120.63h16.31V180h11.64l-.09-59.4h16.4v-9.31H103.63Z"/>
    <path d="M165.35,112.48H153.71v42.27c0,34.5,52.4,34,52.4,0V112.48H194.47v41.11c0,22.63-29.12,21.95-29.12,0Z"/>
    <path d="M214.27,180h13.89c23.25.19,28.56-21.62,28.56-39.37,0-22.1-8.29-28.18-22.58-28.18H214.27ZM228,170.71h-2.13V120.63h7c7.31-.09,11.65,2.31,11.65,22.73C244.6,153,243.64,170.9,228,170.71Z"/>
    <path d="M275.9,112.48H264.34V180H276Z"/>
    <path d="M281.77,146.26c0,20.6,13.12,34.4,33,34.4,19.73,0,32.85-13.8,32.85-34.4s-13.12-34.4-32.85-34.4C294.89,111.86,281.77,125.66,281.77,146.26Zm9.91,0c0-14.38,9.14-24.1,23.13-24.1,13.8,0,22.94,9.72,22.94,24.1s-9.14,24.1-22.94,24.1C300.82,170.36,291.68,160.64,291.68,146.26Z"/>
    <path d="M376.81,126.18c4.66,6.81,13.6,8.07,21.57,8.07L402.17,109h-.68c-2.72,17.58-16.91,16.32-25.95-3.7-6.31,4.18-21.28,12-21.28,20.79,0,26.83,46.84,22.55,46.84,47.52,0,18.17-36.73,11.56-36.73-6.9,0-6.7,3.4-11.66,11.17-15.35l-.68-.78-20.6,10.88c-11.07,13.51,3.5,28.09,18.27,28.09,12.05,0,38.87-8.65,38.87-23.62,0-20.11-47.61-26.42-47.61-46.34,0-2.24.09-5.35,3.4-8.07l8-5.34A21.57,21.57,0,0,0,376.81,126.18Z"/>
  </g>
</svg>
