<?xml version="1.0" encoding="utf-8"?>
<!-- Generator: Adobe Illustrator 26.3.1, SVG Export Plug-In . SVG Version: 6.00 Build 0)  -->
<svg version="1.1" xmlns="http://www.w3.org/2000/svg" xmlns:xlink="http://www.w3.org/1999/xlink" x="0px" y="0px"
	 viewBox="0 0 877.4 393.6" style="enable-background:new 0 0 877.4 393.6;" xml:space="preserve">
<style type="text/css">
	.st0{clip-path:url(#SVGID_00000106828305188022740330000011244097872584174493_);}
</style>
<g id="Layer_1">
	<g>
		<path d="M868.3,11.6c-6.4,1.5-9.1,6.3-11.2,11.6c-3.6,8.7-4.6,17.9-5.8,27.2c-3.7,31.8-7.6,63.6-11.3,95.3
			c-1.3,11-2.8,22.1-4.2,33c-0.4,2.6,0.5,3.8,3,4.5c0.7,0.2,1.5,0.4,2.5,0.5c-0.2,0.4-0.6,0.8-0.9,1.2
			c-10.2,7.7-21.4,13.6-34.3,15.6c-4.8,0.8-9.7,0.6-14.4-0.6c-8.4-2.4-12.9-8.4-12.7-17.2v-3.4c-0.6,1-1,1.4-1.3,2
			c-9.2,16.4-31.5,23.2-48.3,14.9c-6-2.9-10.7-7.8-13.3-13.9c-4.3-9.7-6.1-20.3-5.4-30.9c0.6-14.9,5.8-29.2,15-40.9
			c8.2-10.7,19.3-16.8,31.7-21.2c7.1-2.5,14.6-4,22.1-4.5c4.2-0.3,8.5-0.4,12.5,1.9c0.5-4.2,1.1-8.2,1.6-12.3
			c1.3-10.3,2-20.7,4.1-31c3.7-18.1,15.5-29.7,31.9-37C838,2.6,846.8,1,856,3c4.2,0.9,8.1,3.1,11,6.2c0.3,0.4,0.7,0.9,1.1,1.3
			C868.1,10.9,868.2,11.3,868.3,11.6z M786.9,103.8c-0.3-3.1-0.5-6.8-1-10.4c-0.3-2-1.2-3.9-3.5-4.3s-4,1.1-5.1,3
			c-0.7,1.1-1.2,2.4-1.6,3.7c-0.9,3-1.6,6.1-2.1,9.3c-1.7,13.1-3.2,26.1-4.6,39.2c-0.8,7.3-1.6,14.6-2,21.9c-0.1,3,0.3,6,1.2,8.9
			c1.1,3.6,5,4.2,7.6,1.4c1-1.1,1.7-2.3,2.1-3.6c1-2.5,1.7-5.1,2.1-7.8c1.3-9.9,2.6-19.9,3.7-29.7
			C784.8,125,785.8,114.7,786.9,103.8z"/>
		<path d="M275.8,109.6c0.5-0.6,1.1-1.2,1.5-1.9c4.3-5.4,8.8-10.7,14.4-14.7c8.1-6,18.4-8.2,28.3-6c8.9,1.7,15.4,7,19.6,15
			c4,7.7,5.4,16.1,6.3,24.6c1.7,14.6-2.3,27.6-10.1,39.9c-9.1,14.2-20.8,24.7-37.1,29.6c-10.6,3.2-21.8,4.3-32.9,3.3
			c-5.9-0.4-11.7-1.3-17.5-2.8c-17.1-4.3-27.2-15.5-30.5-32.7c-2.1-10.7-2-21.5-0.6-32.1c3.3-27.3,6.8-54.5,10.1-81.7
			c0.3-2.2,0.4-4.3,0.4-6.5c0-3.4-1.3-4.5-4.7-4.2c-1.8,0.2-3.6,0.6-5.9,1c0.3-0.8,0.6-1.5,1.1-2.2c5.4-7.1,11.2-13.8,18.7-18.8
			c7.8-5.4,17.5-7.5,26.9-5.9c12.1,2,19.4,10.5,19.3,23.2c0,5.9-1,11.8-1.7,17.6c-2,17-4.2,33.9-6.2,50.9c-0.1,1.5-0.1,3,0,4.4
			L275.8,109.6z M268.2,179.7c0,2.5-0.2,5.1,0,7.6c0.2,2.2,0.6,4.3,1.2,6.4c1.1,3,3.9,3.4,5.8,0.8c1.1-1.5,2-3.1,2.5-4.9
			c1.3-4.5,2.3-9.1,2.9-13.8c2-16.6,3.8-33.1,5.4-49.7c0.5-4.9,0.7-9.8,0.7-14.8c0-1.3-1-2.8-1.5-4.1c-1.4,0.5-3.3,0.7-4.2,1.8
			c-2,2.3-3.7,4.9-4.9,7.8c-1.2,2.8-1.5,6.1-2,9.3C271.3,143.8,269.6,161.7,268.2,179.7L268.2,179.7z"/>
		<path d="M13,91.4c20-1.5,40.1-2,60.5-3.1c-0.6,5.2-1.2,10-1.9,14.9c-3,24.3-6.1,48.6-9.2,72.9c0,0.9,0.2,1.7,0.4,2.6
			c0.9-0.4,2-0.5,2.5-1.2c2-2.6,3.7-5.4,5.2-8.4c3.7-8.1,5.3-16.7,6.7-25.5c1.8-12.3,3.7-24.7,5.4-37c0.4-2.7,0.4-5.4,0.7-8.2
			c0.4-2.1-0.6-4.1-2.5-5.1c-0.6-0.3-1.2-0.8-1.7-1.3c1.5-1,54.9-3.9,60.8-3.5c-0.8,7.2-1.5,14.5-2.3,21.8l0.5,0.3
			c0.5-0.6,1.1-1.2,1.6-1.8c4.4-5.7,8.9-11.1,14.8-15.3c11-7.7,23-8.9,35.4-4.8c8.5,2.8,13,9.2,13.3,18c0.2,5.8-0.6,11.7-1.3,17.4
			c-2.1,17-4.4,33.9-6.6,50.8c-0.2,1.1-0.4,2.2-0.5,3.4c-0.4,2.9,0.4,4,3.3,4.6l2,0.4c-0.2,0.4-0.4,0.6-0.5,1
			c-9.5,7.2-19.6,13.4-31.4,15.8c-3.9,0.8-8,0.9-11.9,0.4c-9.5-1.3-15.5-8.5-16.6-18.8c-0.7-6.7,0.5-13.2,1.5-19.7
			c2.4-15.8,4.8-31.7,7.2-47.6c0.4-2.6-0.6-3.5-2.9-2.4c-2.3,1-4.4,2.3-6.3,3.8c-9.6,8.4-19.3,16.9-28.6,25.5
			c-15.5,14.2-30.7,28.9-46.2,43.1c-4.1,3.7-8.6,7.1-13.4,10c-7.7,4.8-16.2,6.1-25,4.4c-12.5-2.4-19.3-12-17.7-25.3
			c2-16.5,4.2-32.9,6.3-49.4c1.1-8.6,2-17.1,3-25.6c0.5-2.1-0.5-4.2-2.5-5c-0.7-0.4-1.4-0.9-2.1-1.4L13,91.4z"/>
		<path d="M508.5,91.4c20-1.5,40.1-2,60.4-3.1c-0.5,4.2-1,8-1.5,11.8c-3.2,25.3-6.3,50.6-9.5,75.8c0,0.9,0.1,1.8,0.4,2.6
			c0.9-0.4,2-0.5,2.5-1.2c2-2.6,3.7-5.4,5.2-8.4c3.7-8,5.3-16.7,6.7-25.5c1.8-12.4,3.7-24.7,5.4-37c0.4-2.8,0.4-5.6,0.7-8.4
			c0.4-2-0.6-4-2.5-4.9c-0.7-0.4-1.3-1.1-1.6-1.9c1.1-0.2,2.2-0.3,3.3-0.4c16-0.7,32-1.5,48.2-2.2l9.2-0.4c-0.8,7.5-1.6,14.8-2.4,22
			l0.5,0.3l1.6-1.7c4.2-4.5,7.9-9.4,12.5-13.4c10.6-9.3,23.2-10.8,36.3-7.3c9.2,2.5,14.7,9.5,14.7,19c0,7-1,14.2-1.9,21.2
			c-2,16.6-4.4,33-6.6,49.6c-0.5,3.2,0.3,4.3,3.6,5c0.6,0.1,1.1,0.3,1.7,0.5c-0.2,0.4-0.5,0.7-0.8,1c-9.3,7-19.2,13-30.9,15.6
			c-4.6,1.2-9.4,1.2-14.1,0.2c-8.5-2-14-8.9-15-18.5c-0.7-6.7,0.5-13.2,1.5-19.7c2.4-15.8,4.8-31.7,7.2-47.6
			c0.4-2.7-0.6-3.6-3.1-2.3c-2.3,1-4.4,2.3-6.2,3.9c-9.5,8.4-19,16.7-28.4,25.3c-15.6,14.3-30.8,28.9-46.4,43.2
			c-4.1,3.8-8.6,7.1-13.3,10c-8.2,5.2-17.3,6.3-26.6,4.1c-11.4-2.8-17.4-12.1-15.9-24.8c2-16.6,4.3-33.1,6.3-49.7
			c1.1-8.5,2-16.9,3-25.4c0.3-2.4-0.4-3.9-2.4-5c-0.7-0.4-1.4-1-2.1-1.5L508.5,91.4z"/>
		<path d="M418.6,202.5c-12.1-0.3-23.5-2.9-34.1-8.8c-26.2-14.7-34.7-44.5-20-70.7c10-17.7,25.4-28.6,44.6-34.1s37.8-4.4,55.5,5.2
			c14.9,8.1,24.4,20.3,27.1,37.2c2.4,15.2-2.1,28.9-11.3,41c-12.3,16.3-29.1,25.4-49,28.9C427.1,201.9,422.9,202,418.6,202.5z
			 M436.1,103c-0.5-3.7-0.7-8.2-1.5-12.6c-0.4-1.3-1.4-2.4-2.8-2.8c-1.5,0-2.9,0.7-3.8,1.9c-1.3,1.8-2.2,3.7-2.8,5.9
			c-1.4,6.8-2.9,13.5-3.7,20.3c-2.2,18.2-4.4,36.4-6.2,54.8c-0.8,7.5-0.8,15-1,22.5c0,1.8,0.5,3.6,1.3,5.2c0.6,1.8,2.6,2.7,4.4,2.1
			c0.6-0.2,1.1-0.6,1.5-1.1c1.3-1.4,2.3-3,2.9-4.8c1.5-4.8,2.6-9.7,3.3-14.6c1.7-13.2,3.1-26.4,4.6-39.6
			C433.5,128.2,434.7,116,436.1,103z"/>
	</g>
	<g>
		<g transform="translate(90.742673, 203.624987)">
			<g>
			</g>
		</g>
	</g>
	<g>
		<g transform="translate(122.2975, 203.624987)">
			<g>
			</g>
		</g>
	</g>
	<g>
		<g transform="translate(172.718448, 203.624987)">
			<g>
			</g>
		</g>
	</g>
	<g>
		<g transform="translate(233.60202, 203.624987)">
			<g>
			</g>
		</g>
	</g>
	<g>
		<g transform="translate(265.101217, 203.624987)">
			<g>
			</g>
		</g>
	</g>
</g>
<g id="Layer_2">
	<g>
		<g>
			<g transform="translate(58.273464, 224.482706)">
				<g>
					<path d="M4.1,108.2c28.7,0,47.4-13.8,47.4-37.1c0-18.7-10.6-29-34.8-33.9l-12-2.5C-5,32.6-8.7,29.7-8.7,24.6
						c0-5.5,4.3-9.3,11-9.3c7.4,0,12.9,5.5,13.5,14.3l29.3-5.8c-1.5-20.1-19-32.2-42-32.2c-26.4,0-43.6,13.8-43.6,35.7
						c0,18.6,10.4,28.8,34.5,33.9l12.1,2.6c9.7,2.3,13.7,5.4,13.7,10.6c0,5.8-5.7,9.8-14.3,9.8c-10,0-17.5-6.1-18.2-17L-42.8,72
						C-41.2,95.6-22.5,108.2,4.1,108.2z"/>
				</g>
			</g>
		</g>
		<g>
			<g transform="translate(103.274732, 224.482706)">
				<g>
					<path d="M50.3,104.1h33v-81h27v-28h-88v28h28V104.1z"/>
				</g>
			</g>
		</g>
		<g>
			<g transform="translate(146.02909, 224.482706)">
				<g>
					<path d="M137.1,108.3c30.8,0,48.4-15.6,48.4-42.9V-4.9h-34v67.8c0,10.6-5.7,17-15,17c-9.5,0-15-6.6-15-17V-4.9h-33v70.2
						C88.6,92.6,106.3,108.3,137.1,108.3z"/>
				</g>
			</g>
		</g>
		<g>
			<g transform="translate(195.212097, 224.482706)">
				<g>
					<path d="M160.4,105.1h44.7c36.6,0,56.7-19.8,56.7-55c0-35.3-20-55-56.4-55h-45V105.1z M193.4,79.1v-58h12.2
						c15.3,0,23.6,10.3,23.6,29c0,18.5-8.3,29-23.6,29H193.4z"/>
				</g>
			</g>
		</g>
		<g>
			<g transform="translate(245.393738, 224.482706)">
				<g>
					<path d="M234.2,105.1h33v-110h-33V105.1z"/>
				</g>
			</g>
		</g>
		<g>
			<g transform="translate(269.292982, 224.482706)">
				<g>
					<path d="M320,108.2c32.4,0,53.5-22.8,53.5-57.7c0-35-21.2-57.7-53.5-57.7c-32.3,0-53.5,22.7-53.5,57.7
						C266.5,85.4,287.6,108.2,320,108.2z M320,91.5c-20.9,0-34.3-16.1-34.3-40.9c0-25,13.5-41.1,34.3-41.1
						c20.9,0,34.2,16.1,34.2,41.1C354.2,75.4,340.8,91.5,320,91.5z"/>
				</g>
			</g>
			<g transform="translate(58.273464, 224.482706)">
				<g>
					<path d="M505.6,50.4c0,12.5,6,20.6,16.2,20.6c8.1,0,12.6-4.6,14.7-15.1l1.1-5.2c0.9-4.2,2.2-5.8,4.4-5.8c2.4,0,4.1,1.9,4.1,4.8
						c0,3.2-2.4,5.6-6.2,5.9l2.5,12.7c8.7-0.7,14-8.3,14-18.3c0-11.5-6-19-15.5-19c-8.1,0-12.5,4.5-14.7,15l-1.1,5.3
						c-1,4.2-2.3,5.9-4.6,5.9c-2.5,0-4.3-2.5-4.3-6.2c0-4.3,2.7-7.6,7.4-7.9L521.3,30C511.1,30.8,505.6,38.9,505.6,50.4z"/>
				</g>
			</g>
		</g>
		<g>
			<g>
				<g transform="translate(269.292982, 224.482706)">
					<g>
						<path d="M534,107.4c32.4,0,53.5-22.8,53.5-57.7c0-35-21.2-57.7-53.5-57.7c-32.3,0-53.5,22.7-53.5,57.7
							C480.4,84.6,501.6,107.4,534,107.4z M534,90.7c-20.9,0-34.3-16.1-34.3-40.9c0-25,13.5-41.1,34.3-41.1
							c20.9,0,34.2,16.1,34.2,41.1C568.2,74.6,554.8,90.7,534,90.7z"/>
					</g>
				</g>
			</g>
			<g>
				<g transform="translate(58.273464, 224.482706)">
					<g>
						<path d="M772.6,49.6c0,12.5-6,20.6-16.2,20.6c-8.1,0-12.6-4.6-14.7-15.1l-1.1-5.2c-0.9-4.2-2.2-5.8-4.4-5.8
							c-2.4,0-4.1,1.9-4.1,4.8c0,3.2,2.4,5.6,6.2,5.9l-2.5,12.7c-8.7-0.7-14-8.3-14-18.3c0-11.5,6-19,15.5-19
							c8.1,0,12.5,4.5,14.7,15l1.1,5.3c1,4.2,2.3,5.9,4.6,5.9c2.5,0,4.3-2.5,4.3-6.2c0-4.3-2.7-7.6-7.4-7.9l2.1-13.1
							C767.1,29.9,772.6,38.1,772.6,49.6z"/>
					</g>
				</g>
			</g>
		</g>
		<g>
			<defs>
				
					<rect id="SVGID_1_" x="642.6" y="332.6" transform="matrix(-1 -4.620225e-07 4.620225e-07 -1 1392.1589 734.2003)" width="107" height="69"/>
			</defs>
			<clipPath id="SVGID_00000066513498176240172260000005777581762536885387_">
				<use xlink:href="#SVGID_1_"  style="overflow:visible;"/>
			</clipPath>
			<g style="clip-path:url(#SVGID_00000066513498176240172260000005777581762536885387_);">
				<g transform="translate(269.292982, 224.482706)">
					<g>
						<path d="M427,50.5c-32.4,0-53.5,22.8-53.5,57.7c0,35,21.2,57.7,53.5,57.7c32.3,0,53.5-22.7,53.5-57.7
							C480.5,73.3,459.4,50.5,427,50.5z M427,67.2c20.9,0,34.3,16.1,34.3,40.9c0,25-13.5,41.1-34.3,41.1
							c-20.9,0-34.2-16.1-34.2-41.1C392.8,83.3,406.1,67.2,427,67.2z"/>
					</g>
				</g>
			</g>
		</g>
	</g>
</g>
</svg>
