<?xml version="1.0" encoding="utf-8"?>
<!-- Generator: Adobe Illustrator 26.3.1, SVG Export Plug-In . SVG Version: 6.00 Build 0)  -->
<svg version="1.1" id="Layer_1" xmlns="http://www.w3.org/2000/svg" xmlns:xlink="http://www.w3.org/1999/xlink" x="0px" y="0px"
	 viewBox="0 0 862.5 371.8" style="enable-background:new 0 0 862.5 371.8;" xml:space="preserve">
<style type="text/css">
	.st0{fill:#FFFFFF;}
</style>
<g>
	<path class="st0" d="M397.2,343.5V236.3c1.6,0,3-0.1,4.4-0.1c19.3,0,38.5-0.1,57.8,0c6.6,0,13.3,0.2,19.8,0.7
		c22.6,1.8,35.9,7.3,39.2,16.2c0.8,1.9,1.2,4,1.2,6.1c0.1,20.4,0.1,40.8,0,61.1c0,2.7-0.7,5.3-2,7.7c-4.7,9-20.6,14.4-45.3,15.1
		c-15.5,0.4-31,0.3-46.6,0.4C416.3,343.5,407,343.5,397.2,343.5z M438.9,251v78.3h10.5c21.6,0,28.1-2.4,28.1-10.4
		c0-19.2,0-38.5,0-57.7c0-1.6-0.3-3.2-1.1-4.6c-1.8-3.1-7.5-5.1-16-5.4C453.3,250.8,446.1,251,438.9,251z"/>
	<path class="st0" d="M598.9,289.7c0-11.4-0.2-22.9,0.1-34.3c0.1-2.9,1-5.8,2.6-8.2c4.2-6.5,15.7-10.7,33.4-11.4
		c16.1-0.7,32.7-0.8,48.9-0.2c22.7,0.9,35.4,6.1,38.1,14.6c0.6,1.7,0.9,3.4,0.9,5.2c0.1,23,0.1,46-0.1,68.9c-0.1,3-1.1,5.9-2.8,8.4
		c-4.1,6.2-15.1,10.3-32,11.1c-16.8,0.7-34,0.9-50.8,0.2c-22.6-0.9-35.2-6.4-37.5-15c-0.5-1.9-0.8-3.9-0.8-5.9
		C598.9,312,598.9,300.8,598.9,289.7z M681.1,289.8c0-10.9,0-21.9,0-32.8c0-1.2-0.3-2.3-0.8-3.4c-1.2-2.3-5.3-3.7-11.7-3.9
		c-4-0.1-8.1-0.1-12.1-0.1c-10.3,0.1-14.6,1.6-15.6,5.4c-0.1,0.7-0.2,1.3-0.2,2c0,21.9,0,43.8,0,65.6c0,1.1,0.2,2.2,0.7,3.2
		c1.1,2.3,4.7,3.7,10.9,4c4.6,0.2,9.4,0.2,14,0.2c9.1-0.1,13.1-1.6,14.4-4.9c0.3-0.8,0.4-1.7,0.3-2.5
		C681.1,311.7,681.1,300.7,681.1,289.8L681.1,289.8z"/>
	<path class="st0" d="M255.5,235.6h41.7v2.9c0.2,28.1,0.2,56.2,0.2,84.2c0,5.9,4.1,7.4,19.9,7.4c14.3,0,18.8-1.7,18.8-7
		c0-28.1,0-56.3-0.3-84.4v-2.3h41.7v1.7c0.5,28.8,0.6,57.6,0.3,86.4c0,3.4-1.7,6.9-4.5,10.1c-5,5.8-17.2,9-33,9.5
		c-15.5,0.5-31.5,0.7-46.9,0c-23.5-1.1-35.6-6.8-37.6-16.2c-0.2-1.1-0.3-2.2-0.3-3.2c0-28.9,0-57.7,0-86.6L255.5,235.6z"/>
	<path class="st0" d="M2.8,302.2H44v1.7c0,6.6,0,13.2,0,19.8c0,5.2,4.6,6.8,18.6,6.8c2.3,0,4.6,0,6.9-0.1c7-0.3,10.9-1.7,12-4.3
		c0.4-1.3,0.6-2.6,0.5-4c0-4.2-0.1-8.4,0-12.5c0.2-3.6-3.5-6.5-11.4-8.8c-14.5-4.1-28.8-8.4-43.5-12.4c-16.7-4.5-24.5-10.5-24.3-18
		c0.2-6.5-0.3-13.1,0.9-19.6C5.6,241,22,235.3,48.3,235c11.9-0.2,24-0.3,35.7,0.3c23,1.1,36.9,6.5,38.1,15.2
		c1.1,7.9,0.2,15.8,0.2,23.9h-41v-1.9c0-5.6,0-11.1,0-16.7c-0.1-4.7-4.8-6.4-17.6-6.5c-2.1,0-4.3,0-6.4,0.1
		c-7.9,0.4-12.3,2-12.5,4.9c-0.4,5-0.4,9.9,0,14.9c0.2,2.9,4.3,5.1,10.5,6.9c14.5,4.1,28.8,8.4,43.5,12.4
		c16.5,4.5,25.1,10.3,24.8,17.9c-0.2,6.4,0.2,12.8-0.2,19.2c-0.2,2.8-1.2,5.5-2.9,7.7c-4.4,6.1-15.5,10.2-32.3,10.9
		c-15.6,0.7-31.8,0.9-47.3,0.2c-22.6-0.9-36-6.5-37.4-15c-1.3-7.7-0.8-15.4-1-23C2.8,305,2.8,303.6,2.8,302.2z"/>
	<path class="st0" d="M781,302.2v2.1c0,6.8-0.1,13.7,0.1,20.5c0.1,3.9,5.1,5.6,15.5,5.7c3.1,0,6.2,0.1,9.3-0.1
		c7.5-0.3,12.4-1.9,12.5-4.7c0.3-6.1,0.3-12.2-0.1-18.4c-0.2-3-5.5-5.1-11.7-6.8c-14.2-4.1-28.2-8.2-42.6-12.2
		c-16.6-4.5-24.4-10.5-24-18.1c0.3-5.3-0.2-10.7,0.2-16c0.2-2.8,1.1-5.4,2.7-7.7c4.5-6.5,16.2-10.5,33.8-11.2
		c14.3-0.6,29.1-0.8,43.4-0.2c24,1,37.7,6.5,39.1,15.8c1.2,7.7,0.2,15.5,0.2,23.4h-40.8c-0.1-0.6-0.2-1.1-0.2-1.7
		c0-5.6,0-11.1,0-16.7c0-5-4.8-6.7-18.4-6.7c-2.3,0-4.6,0.1-6.8,0.2c-6.5,0.4-10.7,1.8-10.9,4.2c-0.4,5.5-0.4,11,0.2,16.5
		c0.3,2.6,5.2,4.5,10.7,6c14.2,4,28.2,8.3,42.7,12.2C853,293,861.2,299,860.7,307c-0.4,6.2,0.1,12.5-0.2,18.7
		c-0.1,2.2-0.8,4.3-1.9,6.1c-4,7-15.3,11.7-34.6,12.5c-15.6,0.6-31.7,0.8-47.2,0c-21-1-32.7-6-35.7-13.7c-0.8-2.3-1.1-4.7-1.1-7.1
		c-0.1-7.1,0-14.2,0-21.3L781,302.2z"/>
	<path class="st0" d="M207.6,251.1v92.2h-41.7v-92.2h-37.5v-14.7h116.7v14.7H207.6z"/>
	<path class="st0" d="M579.5,343.2h-41.7V236.3h41.7V343.2z"/>
</g>
<g>
	<path class="st0" d="M862.5,9.6c-6.4,1.5-9.1,6.3-11.2,11.6c-3.6,8.7-4.6,17.9-5.8,27.2c-3.7,31.8-7.6,63.6-11.3,95.3
		c-1.3,11-2.8,22.1-4.2,33c-0.4,2.6,0.5,3.8,3,4.5c0.7,0.2,1.5,0.4,2.5,0.5c-0.2,0.4-0.6,0.8-0.9,1.2c-10.2,7.7-21.4,13.6-34.3,15.6
		c-4.8,0.8-9.7,0.6-14.4-0.6c-8.4-2.4-12.9-8.4-12.7-17.2v-3.4c-0.6,1-1,1.4-1.3,2c-9.2,16.4-31.5,23.2-48.3,14.9
		c-6-2.9-10.7-7.8-13.3-13.9c-4.3-9.7-6.1-20.3-5.4-30.9c0.6-14.9,5.8-29.2,15-40.9c8.2-10.7,19.3-16.8,31.7-21.2
		c7.1-2.5,14.6-4,22.1-4.5c4.2-0.3,8.5-0.4,12.5,1.9c0.5-4.2,1.1-8.2,1.6-12.3c1.3-10.3,2-20.7,4.1-31c3.7-18.1,15.5-29.7,31.9-37
		c8.4-3.8,17.2-5.4,26.4-3.4c4.2,0.9,8.1,3.1,11,6.2c0.3,0.4,0.7,0.9,1.1,1.3C862.3,8.9,862.4,9.2,862.5,9.6z M781.4,101.8
		c-0.3-3.1-0.5-6.8-1-10.4c-0.3-2-1.2-3.9-3.5-4.3s-4,1.1-5.1,3c-0.7,1.1-1.2,2.4-1.6,3.7c-0.9,3-1.6,6.1-2.1,9.3
		c-1.7,13.1-3.2,26.1-4.6,39.2c-0.8,7.3-1.6,14.6-2,21.9c-0.1,3,0.3,6,1.2,8.9c1.1,3.6,5,4.2,7.6,1.4c1-1.1,1.7-2.3,2.1-3.6
		c1-2.5,1.7-5.1,2.1-7.8c1.3-9.9,2.6-19.9,3.7-29.7C779.3,123,780.3,112.7,781.4,101.8z"/>
	<path class="st0" d="M270.3,108c0.5-0.6,1.1-1.2,1.5-1.9c4.3-5.4,8.8-10.7,14.4-14.7c8.1-6,18.4-8.2,28.3-6c8.9,1.7,15.4,7,19.6,15
		c4,7.7,5.4,16.1,6.3,24.6c1.7,14.6-2.3,27.6-10.1,39.9c-9.1,14.2-20.8,24.7-37.1,29.6c-10.6,3.2-21.8,4.3-32.9,3.3
		c-5.9-0.4-11.7-1.3-17.5-2.8c-17.1-4.3-27.2-15.5-30.5-32.7c-2.1-10.7-2-21.5-0.6-32.1c3.3-27.3,6.8-54.5,10.1-81.7
		c0.3-2.2,0.4-4.3,0.4-6.5c0-3.4-1.3-4.5-4.7-4.2c-1.8,0.2-3.6,0.6-5.9,1c0.3-0.8,0.6-1.5,1.1-2.2c5.4-7.1,11.2-13.8,18.7-18.8
		c7.8-5.4,17.5-7.5,26.9-5.9c12.1,2,19.4,10.5,19.3,23.2c0,5.9-1,11.8-1.7,17.6c-2,17-4.2,33.9-6.2,50.9c-0.1,1.5-0.1,3,0,4.4
		L270.3,108z M262.7,177.7c0,2.5-0.2,5.1,0,7.6c0.2,2.2,0.6,4.3,1.2,6.4c1.1,3,3.9,3.4,5.8,0.8c1.1-1.5,2-3.1,2.5-4.9
		c1.3-4.5,2.3-9.1,2.9-13.8c2-16.6,3.8-33.1,5.4-49.7c0.5-4.9,0.7-9.8,0.7-14.8c0-1.3-1-2.8-1.5-4.1c-1.4,0.5-3.3,0.7-4.2,1.8
		c-2,2.3-3.7,4.9-4.9,7.8c-1.2,2.8-1.5,6.1-2,9.3C265.8,141.7,264.1,159.7,262.7,177.7L262.7,177.7z"/>
	<path class="st0" d="M7.7,89.4c20-1.5,40.1-2,60.5-3.1c-0.6,5.2-1.2,10-1.9,14.9c-3,24.3-6.1,48.6-9.2,72.9c0,0.9,0.2,1.7,0.4,2.6
		c0.9-0.4,2-0.5,2.5-1.2c2-2.6,3.7-5.4,5.2-8.4c3.7-8.1,5.3-16.7,6.7-25.5c1.8-12.3,3.7-24.7,5.4-37c0.4-2.7,0.4-5.4,0.7-8.2
		c0.4-2.1-0.6-4.1-2.5-5.1c-0.6-0.3-1.2-0.8-1.7-1.3c1.5-1,54.9-3.9,60.8-3.5c-0.8,7.2-1.5,14.5-2.3,21.8l0.5,0.3
		c0.5-0.6,1.1-1.2,1.6-1.8c4.4-5.7,8.9-11.1,14.8-15.3c11-7.7,23-8.9,35.4-4.8c8.5,2.8,13,9.2,13.3,18c0.2,5.8-0.6,11.7-1.3,17.4
		c-2.1,17-4.4,33.9-6.6,50.8c-0.2,1.1-0.4,2.2-0.5,3.4c-0.4,2.9,0.4,4,3.3,4.6l2,0.4c-0.2,0.4-0.4,0.6-0.5,1
		c-9.5,7.2-19.6,13.4-31.4,15.8c-3.9,0.8-8,0.9-11.9,0.4c-9.5-1.3-15.5-8.5-16.6-18.8c-0.7-6.7,0.5-13.2,1.5-19.7
		c2.4-15.8,4.8-31.7,7.2-47.6c0.4-2.6-0.6-3.5-2.9-2.4c-2.3,1-4.4,2.3-6.3,3.8c-9.6,8.4-19.3,16.9-28.6,25.5
		c-15.5,14.2-30.7,28.9-46.2,43.1c-4.1,3.7-8.6,7.1-13.3,10c-7.7,4.8-16.2,6.1-25,4.4c-12.5-2.4-19.3-12-17.7-25.3
		c2-16.5,4.2-32.9,6.3-49.4c1.1-8.6,2-17.1,3-25.6c0.5-2.1-0.5-4.2-2.5-5c-0.7-0.4-1.4-0.9-2.1-1.4L7.7,89.4z"/>
	<path class="st0" d="M503,89.4c20-1.5,40.1-2,60.5-3.1c-0.5,4.2-1,8-1.5,11.8c-3.2,25.3-6.3,50.6-9.5,75.8c0,0.9,0.1,1.8,0.4,2.6
		c0.9-0.4,2-0.5,2.5-1.2c2-2.6,3.7-5.4,5.2-8.4c3.7-8,5.3-16.7,6.7-25.5c1.8-12.4,3.7-24.7,5.4-37c0.4-2.8,0.4-5.6,0.7-8.4
		c0.4-2-0.6-4-2.5-4.9c-0.7-0.4-1.3-1.1-1.6-1.9c1.1-0.2,2.2-0.3,3.3-0.4c16-0.7,32-1.5,48.2-2.2l9.2-0.4c-0.8,7.5-1.6,14.8-2.4,22
		l0.5,0.3l1.6-1.7c4.2-4.5,7.9-9.4,12.5-13.4c10.6-9.3,23.2-10.8,36.3-7.3c9.2,2.5,14.7,9.5,14.7,19c0,7-1,14.2-1.9,21.2
		c-2,16.6-4.4,33-6.6,49.6c-0.5,3.2,0.3,4.3,3.6,5c0.6,0.1,1.1,0.3,1.7,0.5c-0.2,0.4-0.5,0.7-0.8,1c-9.3,7-19.2,13-30.9,15.6
		c-4.6,1.2-9.4,1.2-14.1,0.2c-8.5-2-14-8.9-15-18.5c-0.7-6.7,0.5-13.2,1.5-19.7c2.4-15.8,4.8-31.7,7.2-47.6c0.4-2.7-0.6-3.6-3.1-2.3
		c-2.3,1-4.4,2.3-6.2,3.9c-9.5,8.4-19,16.7-28.4,25.3c-15.6,14.3-30.8,28.9-46.4,43.2c-4.1,3.8-8.6,7.1-13.3,10
		c-8.2,5.2-17.3,6.3-26.6,4.1c-11.4-2.8-17.5-12.1-15.9-24.8c2-16.6,4.3-33.1,6.3-49.7c1.1-8.5,2-16.9,3-25.4c0.3-2.4-0.4-3.9-2.4-5
		c-0.7-0.4-1.4-1-2.1-1.5L503,89.4z"/>
	<path class="st0" d="M413.1,200.5c-12.1-0.3-23.5-2.9-34.1-8.8c-26.2-14.7-34.7-44.5-20-70.7c10-17.7,25.4-28.6,44.6-34.1
		s37.8-4.4,55.5,5.2c14.9,8.1,24.4,20.3,27.1,37.2c2.4,15.2-2.1,28.9-11.3,41c-12.3,16.3-29.1,25.4-49,28.9
		C421.6,199.9,417.4,200,413.1,200.5z M430.6,101c-0.5-3.7-0.7-8.2-1.5-12.6c-0.4-1.3-1.4-2.4-2.8-2.8c-1.5,0-2.9,0.7-3.8,1.9
		c-1.3,1.8-2.2,3.7-2.8,5.9c-1.4,6.8-2.9,13.5-3.7,20.3c-2.2,18.2-4.4,36.4-6.2,54.8c-0.8,7.5-0.8,15-1,22.5c0,1.8,0.5,3.6,1.3,5.2
		c0.6,1.8,2.6,2.7,4.4,2.1c0.6-0.2,1.1-0.6,1.5-1.1c1.3-1.4,2.3-3,2.9-4.8c1.5-4.8,2.6-9.7,3.3-14.6c1.7-13.2,3.1-26.4,4.6-39.6
		C428,126.2,429.2,114,430.6,101z"/>
</g>
<path class="st0" d="M861,212.6v10H1v-10H861z"/>
<path class="st0" d="M860.6,363.8v8H0.6v-8H860.6z"/>
</svg>
