<svg id="Layer_1" data-name="Layer 1" xmlns="http://www.w3.org/2000/svg" viewBox="0 0 860 336.82">
  <defs>
    <style>
      .cls-1 {
        fill: #fff;
      }
    </style>
  </defs>
  <g>
    <path class="cls-1" d="M394.64,335.53V228.3c1.59,0,3-.08,4.41-.08,19.26,0,38.53-.07,57.79,0,6.6,0,13.32.21,19.76.71,22.62,1.76,35.87,7.28,39.24,16.18a17.31,17.31,0,0,1,1.19,6.1c.09,20.38.13,40.77,0,61.15a16.71,16.71,0,0,1-2,7.69c-4.74,9-20.58,14.41-45.29,15.09-15.46.43-31,.29-46.57.36C413.77,335.57,404.41,335.53,394.64,335.53ZM436.32,243v78.27h10.51c21.6,0,28.08-2.4,28.09-10.43,0-19.24,0-38.48-.05-57.71a9.08,9.08,0,0,0-1.13-4.65c-1.79-3.12-7.46-5.14-16-5.43C450.71,242.82,443.58,243,436.32,243Z"/>
    <path class="cls-1" d="M596.36,281.75c0-11.43-.16-22.86.12-34.28a15.79,15.79,0,0,1,2.58-8.2c4.18-6.51,15.68-10.71,33.38-11.45,16.13-.67,32.73-.78,48.87-.17,22.68.86,35.38,6.15,38.14,14.56a16.67,16.67,0,0,1,.92,5.21c.06,23,.14,46-.08,68.92a15.42,15.42,0,0,1-2.8,8.37c-4.14,6.19-15.1,10.34-32,11.07-16.75.72-34,.91-50.76.25-22.64-.9-35.24-6.44-37.55-15a23.24,23.24,0,0,1-.78-5.94C596.32,304,596.36,292.87,596.36,281.75Zm82.2.07c0-10.94,0-21.88,0-32.81a7.44,7.44,0,0,0-.78-3.4c-1.2-2.33-5.32-3.69-11.69-3.88-4-.11-8.09-.1-12.13-.06-10.27.09-14.6,1.61-15.58,5.43a7.75,7.75,0,0,0-.15,2q0,32.82,0,65.63a7.75,7.75,0,0,0,.68,3.23c1.06,2.28,4.7,3.68,10.9,4,4.63.21,9.37.24,14,.16,9.1-.15,13.1-1.56,14.38-4.91a7,7,0,0,0,.33-2.51Q678.58,298.23,678.56,281.82Z"/>
    <path class="cls-1" d="M252.93,227.59h41.68v2.91c.17,28.09.16,56.17.17,84.25,0,5.86,4.09,7.37,19.87,7.36,14.28,0,18.83-1.69,18.83-7.05,0-28.14,0-56.29-.32-84.43v-2.27h41.68v1.69q.8,43.2.33,86.41c0,3.37-1.66,6.86-4.47,10.06-5.06,5.75-17.22,9-33,9.48-15.55.5-31.51.73-46.92,0-23.53-1.11-35.63-6.8-37.6-16.16a16.14,16.14,0,0,1-.26-3.25q0-43.29,0-86.59Z"/>
    <path class="cls-1" d="M.26,294.19H41.42v1.71c0,6.6,0,13.2,0,19.8,0,5.16,4.57,6.81,18.63,6.81,2.28,0,4.6,0,6.85-.09,7-.34,10.91-1.71,12-4.3a10.42,10.42,0,0,0,.5-4c.06-4.17-.1-8.35.06-12.53.15-3.65-3.52-6.55-11.41-8.78-14.54-4.11-28.76-8.39-43.53-12.39C7.84,275.93,0,269.93.27,262.38c.22-6.53-.29-13.09.92-19.59C3,233,19.42,227.31,45.77,227c11.9-.16,24-.28,35.73.28,23,1.12,36.93,6.54,38.15,15.16,1.11,7.9.23,15.84.23,23.9H78.93v-1.94c0-5.57,0-11.14,0-16.71-.06-4.71-4.85-6.45-17.57-6.47-2.12,0-4.27,0-6.36.11-7.89.43-12.28,2-12.49,4.91a102.78,102.78,0,0,0,0,14.89C42.72,264,46.84,266.22,53,268c14.55,4.11,28.8,8.37,43.55,12.38,16.52,4.48,25.09,10.3,24.79,17.94-.26,6.42.22,12.84-.17,19.25a14.69,14.69,0,0,1-2.86,7.7c-4.41,6.12-15.47,10.18-32.33,10.94-15.61.7-31.75.89-47.34.25-22.62-.93-36-6.46-37.39-15-1.26-7.66-.76-15.36-1-23C.22,297,.26,295.66.26,294.19Z"/>
    <path class="cls-1" d="M778.46,294.19v2.06c0,6.84-.11,13.69.1,20.54.11,3.86,5.11,5.63,15.45,5.72,3.1,0,6.22.06,9.29-.06,7.53-.29,12.38-1.93,12.52-4.68a151.83,151.83,0,0,0-.07-18.35c-.21-3-5.54-5.06-11.68-6.82-14.21-4.06-28.18-8.25-42.62-12.19-16.55-4.53-24.41-10.49-24-18.09.27-5.33-.23-10.66.18-16a15.51,15.51,0,0,1,2.72-7.71c4.46-6.47,16.18-10.47,33.79-11.24,14.3-.63,29.08-.77,43.38-.21,24,1,37.64,6.46,39.11,15.79,1.22,7.72.25,15.49.25,23.35H816.09a13.8,13.8,0,0,1-.24-1.71c0-5.58,0-11.15,0-16.72,0-5-4.76-6.74-18.39-6.72-2.27,0-4.58.05-6.81.2-6.49.43-10.71,1.8-10.89,4.21a95,95,0,0,0,.17,16.52c.28,2.62,5.19,4.47,10.68,6,14.23,4.05,28.15,8.26,42.65,12.17,17.24,4.65,25.43,10.76,24.88,18.66-.43,6.24.06,12.48-.18,18.72a13.56,13.56,0,0,1-1.86,6.12c-4,7-15.31,11.68-34.58,12.48-15.58.64-31.68.75-47.2,0-21-1-32.73-5.95-35.69-13.74a20.84,20.84,0,0,1-1.11-7.06c-.14-7.08,0-14.16,0-21.33Z"/>
    <path class="cls-1" d="M205,243.08v92.15H163.33V243.08H125.82V228.36H242.51v14.72Z"/>
    <path class="cls-1" d="M577,335.23H535.3V228.36H577Z"/>
  </g>
  <g>
    <path class="cls-1" d="M860,9.6c-6.41,1.52-9.08,6.33-11.22,11.58-3.56,8.72-4.63,17.89-5.78,27.15-3.74,31.79-7.57,63.57-11.31,95.35-1.34,11-2.85,22.08-4.19,33-.35,2.59.54,3.83,3,4.46.71.17,1.51.35,2.49.53a5.34,5.34,0,0,1-.89,1.16c-10.24,7.74-21.36,13.62-34.27,15.58a34.27,34.27,0,0,1-14.43-.63c-8.37-2.4-12.91-8.45-12.64-17.18v-3.38c-.62,1-1,1.42-1.33,2-9.17,16.38-31.52,23.23-48.35,14.95a27.76,27.76,0,0,1-13.35-13.88,65.68,65.68,0,0,1-5.43-30.9,71.31,71.31,0,0,1,14.95-40.95C725.47,97.74,736.6,91.6,749,87.24a84.63,84.63,0,0,1,22.08-4.54c4.18-.27,8.46-.36,12.55,1.87.54-4.19,1.07-8.19,1.6-12.29,1.34-10.33,2-20.74,4.1-31,3.65-18.07,15.49-29.74,31.87-37C829.55.52,838.37-1.17,847.54.88a20.6,20.6,0,0,1,11,6.23l1.06,1.34C859.73,8.89,859.91,9.25,860,9.6Zm-81.11,92.15c-.26-3.12-.53-6.77-1-10.42-.26-2-1.15-3.91-3.47-4.27s-4,1.07-5.07,3a14.57,14.57,0,0,0-1.61,3.65,81.18,81.18,0,0,0-2.13,9.26c-1.69,13.08-3.21,26.08-4.63,39.17-.8,7.3-1.6,14.6-2,21.9A27.23,27.23,0,0,0,760.2,173c1.07,3.56,5,4.18,7.56,1.42a10,10,0,0,0,2.14-3.65A38.67,38.67,0,0,0,772,163c1.33-9.88,2.58-19.85,3.65-29.73C776.76,123,777.74,112.7,778.89,101.75Z"/>
    <path class="cls-1" d="M267.77,108c.53-.62,1.07-1.24,1.51-1.87,4.28-5.43,8.82-10.68,14.43-14.69a35,35,0,0,1,28.31-6c8.9,1.69,15.4,7,19.58,15,4,7.65,5.43,16.11,6.33,24.57,1.69,14.6-2.32,27.6-10.15,39.88-9.09,14.16-20.84,24.67-37.13,29.65a87,87,0,0,1-32.85,3.29,103.61,103.61,0,0,1-17.45-2.76c-17.1-4.27-27.16-15.49-30.54-32.67-2.14-10.68-2-21.46-.62-32.14C212.48,103,216,75.75,219.34,48.6a54.59,54.59,0,0,0,.44-6.5c0-3.38-1.33-4.54-4.72-4.18-1.78.17-3.56.62-5.87,1a9.54,9.54,0,0,1,1.07-2.23c5.43-7.12,11.21-13.8,18.69-18.79A36.47,36.47,0,0,1,255.84,12c12.11,2,19.41,10.5,19.32,23.15,0,5.87-1,11.75-1.69,17.62-2.05,17-4.19,33.92-6.23,50.93a36.71,36.71,0,0,0,0,4.45Zm-7.57,69.71c0,2.5-.18,5.08,0,7.57a27.32,27.32,0,0,0,1.25,6.41c1.07,3,3.92,3.38,5.78.8a14.18,14.18,0,0,0,2.5-4.89,94.48,94.48,0,0,0,2.94-13.8q2.93-24.84,5.43-49.68a137,137,0,0,0,.71-14.78c0-1.34-1-2.76-1.51-4.1-1.43.54-3.3.72-4.19,1.78a29.39,29.39,0,0,0-4.9,7.75c-1.15,2.85-1.51,6.14-2,9.26C263.23,141.73,261.54,159.71,260.2,177.69Z"/>
    <path class="cls-1" d="M5.13,89.38c20-1.52,40.06-2,60.45-3.12-.62,5.16-1.25,10-1.87,14.87-3,24.3-6.14,48.61-9.17,72.91a12.82,12.82,0,0,0,.36,2.59c.89-.36,2-.54,2.49-1.25A53.7,53.7,0,0,0,62.55,167c3.74-8.1,5.35-16.74,6.68-25.46,1.78-12.29,3.65-24.66,5.43-37,.36-2.67.45-5.43.71-8.19a4.72,4.72,0,0,0-2.49-5.08A7.86,7.86,0,0,1,71.19,90c1.51-1,54.93-3.92,60.81-3.47-.8,7.21-1.52,14.51-2.32,21.81l.54.27c.53-.63,1.07-1.16,1.6-1.78,4.36-5.7,8.9-11.13,14.78-15.32,11-7.65,23-8.9,35.43-4.81,8.46,2.76,13,9.17,13.27,18,.18,5.79-.62,11.66-1.34,17.45-2.13,17-4.45,33.92-6.59,50.84-.17,1.06-.35,2.22-.53,3.38-.36,2.85.45,4,3.29,4.63l2.05.44c-.18.36-.35.63-.53,1-9.53,7.21-19.59,13.45-31.43,15.76a36,36,0,0,1-11.93.36c-9.53-1.34-15.49-8.46-16.65-18.79-.71-6.68.54-13.17,1.52-19.67q3.6-23.77,7.21-47.55c.35-2.58-.63-3.47-2.94-2.4a30.36,30.36,0,0,0-6.32,3.83c-9.62,8.46-19.32,16.91-28.67,25.55C87,153.74,71.72,168.35,56.23,182.59a91.1,91.1,0,0,1-13.35,10c-7.66,4.81-16.21,6.06-25,4.45C5.4,194.61-1.37,185,.23,171.73c2-16.47,4.19-32.94,6.32-49.41,1.07-8.55,2-17.1,3-25.55a4.28,4.28,0,0,0-2.49-5,17.74,17.74,0,0,1-2-1.42Z"/>
    <path class="cls-1" d="M500.41,89.38c20-1.52,40.06-2,60.45-3.12-.54,4.18-1,8-1.52,11.84-3.2,25.29-6.32,50.57-9.52,75.85a8.84,8.84,0,0,0,.35,2.59c.89-.36,2.05-.54,2.5-1.16a62.12,62.12,0,0,0,5.25-8.37c3.74-8,5.34-16.74,6.68-25.46,1.78-12.38,3.65-24.66,5.43-37,.35-2.76.44-5.61.71-8.37a4.48,4.48,0,0,0-2.49-4.9,4,4,0,0,1-1.61-1.87c1.07-.17,2.23-.35,3.3-.44,16-.71,32-1.51,48.16-2.23l9.26-.44c-.8,7.48-1.6,14.78-2.4,22l.53.27,1.61-1.7c4.18-4.54,7.92-9.43,12.55-13.44,10.59-9.26,23.15-10.77,36.32-7.3,9.26,2.49,14.69,9.53,14.69,19,0,7-1,14.16-1.87,21.19-2,16.56-4.36,33-6.58,49.59-.45,3.21.35,4.28,3.56,5a7.73,7.73,0,0,1,1.69.53,7.82,7.82,0,0,1-.8,1c-9.35,7-19.23,13-30.9,15.58a30,30,0,0,1-14.06.18c-8.46-2-14-8.9-15.05-18.52-.71-6.68.54-13.17,1.51-19.67q3.62-23.77,7.22-47.55c.44-2.67-.63-3.56-3.12-2.31a25,25,0,0,0-6.23,3.92c-9.53,8.37-19,16.73-28.4,25.28-15.58,14.33-30.81,28.94-46.39,43.18a85.1,85.1,0,0,1-13.35,10c-8.19,5.17-17.27,6.32-26.62,4.1-11.4-2.76-17.45-12.11-15.94-24.75,2-16.56,4.27-33.12,6.32-49.68,1.07-8.46,2-16.92,3-25.38.27-2.4-.36-3.91-2.4-5-.72-.45-1.43-1-2.14-1.51Z"/>
    <path class="cls-1" d="M410.57,200.49c-12.1-.27-23.5-2.85-34.09-8.82-26.18-14.69-34.73-44.51-20-70.69,10-17.72,25.38-28.58,44.61-34.1s37.84-4.45,55.55,5.17c14.87,8.1,24.4,20.3,27.07,37.21,2.4,15.23-2.14,28.94-11.31,41-12.28,16.3-29.11,25.38-49.05,28.85C419.12,199.86,414.85,200,410.57,200.49ZM428,101c-.44-3.65-.71-8.19-1.51-12.55a4.36,4.36,0,0,0-2.76-2.85,4.85,4.85,0,0,0-3.83,1.87,16.4,16.4,0,0,0-2.76,5.87c-1.42,6.77-2.85,13.53-3.74,20.3-2.22,18.25-4.36,36.41-6.23,54.75-.8,7.48-.8,15-1,22.53a11.78,11.78,0,0,0,1.34,5.25,3.45,3.45,0,0,0,4.36,2.14,3,3,0,0,0,1.51-1.07,12.64,12.64,0,0,0,2.94-4.81,101.83,101.83,0,0,0,3.3-14.6c1.69-13.17,3.11-26.44,4.62-39.62C425.44,126.15,426.69,114,428,101Z"/>
  </g>
</svg>
