<svg id="Layer_1" data-name="Layer 1" xmlns="http://www.w3.org/2000/svg" viewBox="0 0 831.4 393.82">
  <path d="M824.16,201.82v10H2.16v-10Z"/>
  <path d="M8.16,393.82v-10h815c2,0,4-.12,6-.19v10.2Z"/>
  <path d="M381.16,367.2V228.73c1.53,0,2.88-.1,4.23-.1,18.49,0,37-.08,55.47,0,6.33,0,12.78.27,19,.91,21.71,2.28,34.43,9.41,37.66,20.9a29.62,29.62,0,0,1,1.15,7.88q.12,39.48,0,78.95a27.61,27.61,0,0,1-1.93,9.94c-4.55,11.63-19.74,18.6-43.46,19.49-14.84.55-29.79.37-44.7.46C399.52,367.25,390.53,367.2,381.16,367.2Zm40-119.46V348.82h10.09c20.73,0,26.95-3.11,26.95-13.48q0-37.26,0-74.52a15,15,0,0,0-1.09-6c-1.71-4-7.16-6.63-15.36-7C435,247.49,428.13,247.74,421.16,247.74Z"/>
  <path d="M574.76,297.75c0-14.75-.16-29.51.11-44.26a25.74,25.74,0,0,1,2.48-10.6c4-8.4,15-13.82,32-14.77a442.19,442.19,0,0,1,46.91-.22c21.76,1.1,34,7.93,36.6,18.8a29.19,29.19,0,0,1,.89,6.73c.05,29.66.13,59.33-.08,89A24.81,24.81,0,0,1,691,353.23c-4,8-14.5,13.36-30.72,14.29a444.88,444.88,0,0,1-48.72.33c-21.72-1.17-33.82-8.33-36-19.33a39.71,39.71,0,0,1-.74-7.67C574.72,326.49,574.76,312.12,574.76,297.75Zm78.89.1c0-14.13,0-28.25,0-42.38a12.44,12.44,0,0,0-.75-4.39c-1.15-3-5.1-4.76-11.22-5-3.86-.15-7.76-.13-11.64-.08-9.85.12-14,2.08-15,7a14.6,14.6,0,0,0-.14,2.56q0,42.38,0,84.75a12.68,12.68,0,0,0,.64,4.16c1,3,4.52,4.75,10.47,5.12,4.44.28,9,.31,13.47.21,8.73-.19,12.58-2,13.8-6.34a12.29,12.29,0,0,0,.32-3.25Q653.67,319,653.65,297.85Z"/>
  <path d="M245.16,227.82h40v3.76c.16,36.26.15,72.53.16,108.79,0,7.57,3.92,9.51,19.07,9.5,13.7,0,18.07-2.18,18.07-9.1,0-36.34,0-72.68-.3-109v-2.92h40V231q.75,55.8.32,111.59a24.58,24.58,0,0,1-4.29,13c-4.86,7.43-16.53,11.58-31.64,12.24a422.74,422.74,0,0,1-45,0c-22.59-1.43-34.19-8.78-36.08-20.87a26.72,26.72,0,0,1-.26-4.19q0-55.9,0-111.82Z"/>
  <path d="M2.66,313.82h39.5V316c0,8.52,0,17,0,25.56,0,6.67,4.39,8.8,17.88,8.8,2.19,0,4.41,0,6.58-.12,6.7-.44,10.47-2.2,11.48-5.54a18.24,18.24,0,0,0,.49-5.14c.05-5.4-.1-10.79.05-16.18.14-4.73-3.38-8.47-11-11.34-14-5.31-27.6-10.84-41.77-16-16-5.82-23.5-13.57-23.26-23.31.21-8.44-.28-16.9.88-25.31,1.73-12.6,17.49-20,42.78-20.43,11.42-.2,23-.36,34.3.37,22.12,1.44,35.44,8.44,36.61,19.58,1.07,10.2.23,20.45.23,30.86H78.16v-2.51c0-7.19,0-14.38,0-21.57-.06-6.08-4.65-8.34-16.86-8.36-2,0-4.1,0-6.1.15-7.57.55-11.79,2.56-12,6.33a178.77,178.77,0,0,0,0,19.23c.2,3.73,4.16,6.61,10.1,8.87,14,5.31,27.63,10.81,41.79,16,15.85,5.79,24.08,13.3,23.79,23.17-.24,8.28.22,16.57-.16,24.86a23.22,23.22,0,0,1-2.75,9.93c-4.23,7.91-14.84,13.15-31,14.13a398.23,398.23,0,0,1-45.44.32C17.81,367.16,5,360,3.64,349c-1.21-9.89-.73-19.83-1-29.76C2.62,317.49,2.66,315.71,2.66,313.82Z"/>
  <path d="M749.52,313.82v2.66c0,8.84-.1,17.68.1,26.52.11,5,4.91,7.27,14.83,7.39,3,0,6,.07,8.92-.08,7.23-.38,11.87-2.49,12-6,.32-7.89.33-15.8-.07-23.7-.19-3.88-5.31-6.54-11.2-8.8-13.64-5.25-27.05-10.65-40.91-15.75-15.88-5.84-23.43-13.54-23.07-23.35.25-6.88-.22-13.77.17-20.65a24.87,24.87,0,0,1,2.61-10c4.28-8.36,15.53-13.53,32.43-14.52a375.61,375.61,0,0,1,41.64-.27c23,1.23,36.12,8.34,37.53,20.38,1.17,10,.24,20,.24,30.16H785.64c-.08-.72-.22-1.47-.23-2.21,0-7.2,0-14.4,0-21.6,0-6.47-4.57-8.7-17.65-8.67-2.18,0-4.39.06-6.53.26-6.24.56-10.29,2.33-10.45,5.43a163.41,163.41,0,0,0,.16,21.34c.26,3.39,5,5.77,10.25,7.79,13.66,5.23,27,10.67,40.93,15.72,16.55,6,24.4,13.9,23.88,24.1-.41,8.06,0,16.12-.18,24.18a22.12,22.12,0,0,1-1.78,7.9c-3.79,9.06-14.69,15.08-33.19,16.11a391.22,391.22,0,0,1-45.3.05c-20.16-1.24-31.41-7.69-34.25-17.74a34.92,34.92,0,0,1-1.06-9.12c-.14-9.14-.05-18.28-.05-27.54Z"/>
  <path d="M199.16,247.82v119h-40v-119h-36v-19h112v19Z"/>
  <path d="M556.16,366.82h-40v-138h40Z"/>
  <path d="M831.4,9.29c-6.2,1.46-8.78,6.11-10.84,11.18-3.45,8.44-4.48,17.3-5.6,26.26Q809.55,92.81,804,138.91c-1.29,10.67-2.75,21.34-4,31.93-.35,2.49.51,3.7,2.92,4.3.69.17,1.47.35,2.41.52a5.56,5.56,0,0,1-.86,1.12c-9.9,7.49-20.66,13.17-33.14,15.06a33.28,33.28,0,0,1-13.94-.6c-8.09-2.33-12.48-8.18-12.22-16.61v-3.28c-.6,1-.95,1.38-1.29,1.9-8.87,15.83-30.47,22.46-46.74,14.46a26.92,26.92,0,0,1-12.91-13.43A63.66,63.66,0,0,1,679,144.41a69,69,0,0,1,14.46-39.59c7.92-10.33,18.68-16.26,30.64-20.48A81.67,81.67,0,0,1,745.42,80c4-.26,8.17-.35,12.13,1.81.52-4.05,1-7.92,1.55-11.88,1.29-10,2-20.06,4-29.95,3.53-17.48,15-28.75,30.81-35.81C802,.51,810.49-1.13,819.35.85a19.86,19.86,0,0,1,10.67,6l1,1.29C831.14,8.6,831.32,8.94,831.4,9.29ZM753,98.37c-.26-3-.51-6.54-1-10.07-.25-1.9-1.11-3.79-3.35-4.13s-3.87,1-4.91,2.92a14.49,14.49,0,0,0-1.55,3.53,78.38,78.38,0,0,0-2.06,8.95c-1.64,12.65-3.1,25.22-4.48,37.87-.77,7.06-1.55,14.12-1.89,21.18a26.19,26.19,0,0,0,1.12,8.6c1,3.45,4.82,4.05,7.31,1.38a9.73,9.73,0,0,0,2.07-3.53,36.73,36.73,0,0,0,2.06-7.49c1.3-9.55,2.5-19.19,3.53-28.74C750.93,118.94,751.87,109,753,98.37Z"/>
  <path d="M258.86,104.39c.52-.6,1-1.2,1.47-1.81,4.13-5.25,8.52-10.32,13.94-14.2a33.8,33.8,0,0,1,27.37-5.85c8.61,1.64,14.89,6.8,18.94,14.55,3.87,7.4,5.25,15.57,6.11,23.75,1.63,14.12-2.24,26.68-9.81,38.56-8.78,13.69-20.14,23.84-35.9,28.66a84.34,84.34,0,0,1-31.76,3.19,100.68,100.68,0,0,1-16.86-2.67c-16.53-4.13-26.26-15-29.53-31.59-2.06-10.33-1.89-20.74-.6-31.07C205.42,99.57,208.77,73.23,212,47a50.83,50.83,0,0,0,.43-6.28c0-3.27-1.29-4.39-4.56-4-1.72.17-3.44.6-5.68.94a10.12,10.12,0,0,1,1-2.15c5.25-6.89,10.85-13.34,18.08-18.16a35.21,35.21,0,0,1,26-5.68C259,13.5,266.09,21.77,266,34c0,5.68-.95,11.36-1.64,17-2,16.44-4,32.79-6,49.23a34.27,34.27,0,0,0,0,4.3Zm-7.31,67.39c0,2.41-.17,4.91,0,7.32a26.64,26.64,0,0,0,1.2,6.2c1,2.92,3.79,3.27,5.6.77a13.67,13.67,0,0,0,2.41-4.73A89.79,89.79,0,0,0,263.6,168c1.89-16,3.61-32,5.25-48a130.37,130.37,0,0,0,.69-14.29c0-1.29-1-2.66-1.47-4-1.37.52-3.18.69-4,1.73a28,28,0,0,0-4.73,7.48c-1.12,2.76-1.47,5.94-2,8.95C254.48,137,252.84,154.4,251.55,171.78Z"/>
  <path d="M5,86.4c19.36-1.46,38.73-1.89,58.44-3-.6,5-1.2,9.64-1.81,14.37-2.92,23.5-5.94,47-8.86,70.5a12.53,12.53,0,0,0,.34,2.49c.86-.34,2-.51,2.41-1.2a51.36,51.36,0,0,0,5-8.09c3.62-7.84,5.17-16.18,6.46-24.62C68.65,125,70.46,113,72.18,101.12c.34-2.58.43-5.25.69-7.92a4.56,4.56,0,0,0-2.41-4.9A8.31,8.31,0,0,1,68.82,87c1.47-1,53.11-3.79,58.79-3.36-.78,7-1.46,14-2.24,21.09l.52.25c.51-.6,1-1.11,1.55-1.72,4.21-5.51,8.6-10.76,14.28-14.8,10.59-7.4,22.21-8.61,34.26-4.65,8.18,2.67,12.57,8.87,12.82,17.39.18,5.59-.6,11.27-1.29,16.87-2.06,16.44-4.3,32.79-6.37,49.14-.17,1-.34,2.15-.51,3.27-.35,2.76.43,3.88,3.18,4.48l2,.43c-.17.34-.34.6-.52.95-9.2,7-18.93,13-30.38,15.23a34.63,34.63,0,0,1-11.53.35c-9.21-1.3-15-8.18-16.1-18.17-.68-6.45.52-12.73,1.47-19q3.48-23,7-46c.34-2.49-.6-3.35-2.84-2.32a29.46,29.46,0,0,0-6.11,3.7c-9.3,8.18-18.68,16.35-27.72,24.7-15,13.77-29.69,27.89-44.67,41.66a88.85,88.85,0,0,1-12.91,9.64c-7.4,4.65-15.66,5.85-24.18,4.3-12-2.32-18.59-11.62-17-24.44,1.9-15.92,4.05-31.85,6.12-47.77,1-8.26,1.89-16.53,2.92-24.7a4.13,4.13,0,0,0-2.41-4.82,16.26,16.26,0,0,1-2-1.38Z"/>
  <path d="M483.77,86.4c19.36-1.46,38.73-1.89,58.44-3-.52,4-1,7.75-1.47,11.45-3.1,24.44-6.11,48.89-9.21,73.33a8.3,8.3,0,0,0,.35,2.5c.86-.35,2-.52,2.41-1.12a61.67,61.67,0,0,0,5.08-8.09c3.61-7.75,5.16-16.18,6.45-24.62,1.72-12,3.53-23.84,5.25-35.72.35-2.67.43-5.42.69-8.09a4.33,4.33,0,0,0-2.41-4.73,4,4,0,0,1-1.55-1.81c1-.17,2.15-.34,3.19-.43,15.49-.69,31-1.46,46.56-2.15l9-.43c-.77,7.23-1.55,14.28-2.32,21.26l.51.25,1.55-1.63c4-4.39,7.66-9.12,12.14-13,10.24-9,22.38-10.41,35.11-7,9,2.41,14.21,9.2,14.21,18.41,0,6.8-1,13.69-1.81,20.49-2,16-4.22,31.93-6.37,47.94-.43,3.1.34,4.13,3.44,4.82a7.16,7.16,0,0,1,1.64.52,7.18,7.18,0,0,1-.78.94c-9,6.8-18.59,12.57-29.86,15.06a29.09,29.09,0,0,1-13.6.18c-8.18-2-13.51-8.61-14.55-17.91-.69-6.45.52-12.73,1.47-19q3.48-23,7-46c.43-2.58-.61-3.44-3-2.24a24.61,24.61,0,0,0-6,3.79c-9.21,8.09-18.42,16.18-27.46,24.44-15.06,13.86-29.78,28-44.84,41.75A83.39,83.39,0,0,1,520,186.16c-7.92,5-16.7,6.11-25.73,4-11-2.67-16.87-11.71-15.41-23.93,1.89-16,4.13-32,6.11-48,1-8.17,1.89-16.35,2.93-24.53.25-2.32-.35-3.78-2.33-4.82-.69-.43-1.37-.94-2.06-1.46Z"/>
  <path d="M396.92,193.82c-11.7-.26-22.72-2.76-33-8.52-25.31-14.2-33.57-43-19.37-68.34,9.64-17.13,24.53-27.63,43.12-33s36.58-4.3,53.71,5c14.37,7.83,23.58,19.62,26.16,36,2.33,14.72-2.06,28-10.93,39.68-11.87,15.75-28.14,24.53-47.42,27.89C405.18,193.22,401.05,193.39,396.92,193.82Zm16.87-96.14c-.43-3.53-.69-7.92-1.46-12.14a4.25,4.25,0,0,0-2.67-2.75A4.69,4.69,0,0,0,406,84.6a15.68,15.68,0,0,0-2.67,5.68c-1.38,6.54-2.75,13.08-3.62,19.62-2.15,17.65-4.21,35.2-6,52.93-.77,7.23-.77,14.55-.95,21.78a11.45,11.45,0,0,0,1.29,5.08,3.33,3.33,0,0,0,4.22,2.06,2.84,2.84,0,0,0,1.46-1,12.35,12.35,0,0,0,2.85-4.65A99.65,99.65,0,0,0,405.7,172c1.64-12.74,3-25.57,4.48-38.3C411.29,122,412.5,110.24,413.79,97.68Z"/>
</svg>
