<?xml version="1.0" encoding="utf-8"?>
<!-- Generator: Adobe Illustrator 26.3.1, SVG Export Plug-In . SVG Version: 6.00 Build 0)  -->
<svg version="1.1" id="Layer_1" xmlns="http://www.w3.org/2000/svg" xmlns:xlink="http://www.w3.org/1999/xlink" x="0px" y="0px"
	 viewBox="0 0 877.4 393.6" style="enable-background:new 0 0 877.4 393.6;" xml:space="preserve">
<g id="Layer_1_00000054252685628460615980000008613425490626466227_">
	<g>
		<path d="M868.8,14.7c-6.4,1.5-9.1,6.3-11.2,11.6c-3.6,8.7-4.6,17.9-5.8,27.2c-3.7,31.8-7.6,63.6-11.3,95.3
			c-1.3,11-2.8,22.1-4.2,33c-0.4,2.6,0.5,3.8,3,4.5c0.7,0.2,1.5,0.4,2.5,0.5c-0.2,0.4-0.6,0.8-0.9,1.2
			c-10.2,7.7-21.4,13.6-34.3,15.6c-4.8,0.8-9.7,0.6-14.4-0.6c-8.4-2.4-12.9-8.4-12.7-17.2v-3.4c-0.6,1-1,1.4-1.3,2
			c-9.2,16.4-31.5,23.2-48.3,14.9c-6-2.9-10.7-7.8-13.3-13.9c-4.3-9.7-6.1-20.3-5.4-30.9c0.6-14.9,5.8-29.2,15-40.9
			c8.2-10.7,19.3-16.8,31.7-21.2c7.1-2.5,14.6-4,22.1-4.5c4.2-0.3,8.5-0.4,12.5,1.9c0.5-4.2,1.1-8.2,1.6-12.3
			c1.3-10.3,2-20.7,4.1-31c3.7-18.1,15.5-29.7,31.9-37c8.4-3.8,17.2-5.4,26.4-3.4c4.2,0.9,8.1,3.1,11,6.2c0.3,0.4,0.7,0.9,1.1,1.3
			C868.6,14,868.7,14.4,868.8,14.7z M787.4,106.9c-0.3-3.1-0.5-6.8-1-10.4c-0.3-2-1.2-3.9-3.5-4.3s-4,1.1-5.1,3
			c-0.7,1.1-1.2,2.4-1.6,3.7c-0.9,3-1.6,6.1-2.1,9.3c-1.7,13.1-3.2,26.1-4.6,39.2c-0.8,7.3-1.6,14.6-2,21.9c-0.1,3,0.3,6,1.2,8.9
			c1.1,3.6,5,4.2,7.6,1.4c1-1.1,1.7-2.3,2.1-3.6c1-2.5,1.7-5.1,2.1-7.8c1.3-9.9,2.6-19.9,3.7-29.7
			C785.3,128.1,786.3,117.8,787.4,106.9z"/>
		<path d="M276.3,112.7c0.5-0.6,1.1-1.2,1.5-1.9c4.3-5.4,8.8-10.7,14.4-14.7c8.1-6,18.4-8.2,28.3-6c8.9,1.7,15.4,7,19.6,15
			c4,7.7,5.4,16.1,6.3,24.6c1.7,14.6-2.3,27.6-10.1,39.9c-9.1,14.2-20.8,24.7-37.1,29.6c-10.6,3.2-21.8,4.3-32.9,3.3
			c-5.9-0.4-11.7-1.3-17.5-2.8c-17.1-4.3-27.2-15.5-30.5-32.7c-2.1-10.7-2-21.5-0.6-32.1c3.3-27.3,6.8-54.5,10.1-81.7
			c0.3-2.2,0.4-4.3,0.4-6.5c0-3.4-1.3-4.5-4.7-4.2c-1.8,0.2-3.6,0.6-5.9,1c0.3-0.8,0.6-1.5,1.1-2.2c5.4-7.1,11.2-13.8,18.7-18.8
			c7.8-5.4,17.5-7.5,26.9-5.9c12.1,2,19.4,10.5,19.3,23.2c0,5.9-1,11.8-1.7,17.6c-2,17-4.2,33.9-6.2,50.9c-0.1,1.5-0.1,3,0,4.4
			L276.3,112.7z M268.7,182.8c0,2.5-0.2,5.1,0,7.6c0.2,2.2,0.6,4.3,1.2,6.4c1.1,3,3.9,3.4,5.8,0.8c1.1-1.5,2-3.1,2.5-4.9
			c1.3-4.5,2.3-9.1,2.9-13.8c2-16.6,3.8-33.1,5.4-49.7c0.5-4.9,0.7-9.8,0.7-14.8c0-1.3-1-2.8-1.5-4.1c-1.4,0.5-3.3,0.7-4.2,1.8
			c-2,2.3-3.7,4.9-4.9,7.8c-1.2,2.8-1.5,6.1-2,9.3C271.8,146.9,270.1,164.8,268.7,182.8L268.7,182.8z"/>
		<path d="M13.5,94.5c20-1.5,40.1-2,60.5-3.1c-0.6,5.2-1.2,10-1.9,14.9c-3,24.3-6.1,48.6-9.2,72.9c0,0.9,0.2,1.7,0.4,2.6
			c0.9-0.4,2-0.5,2.5-1.2c2-2.6,3.7-5.4,5.2-8.4c3.7-8.1,5.3-16.7,6.7-25.5c1.8-12.3,3.7-24.7,5.4-37c0.4-2.7,0.4-5.4,0.7-8.2
			c0.4-2.1-0.6-4.1-2.5-5.1c-0.6-0.3-1.2-0.8-1.7-1.3c1.5-1,54.9-3.9,60.8-3.5c-0.8,7.2-1.5,14.5-2.3,21.8l0.5,0.3
			c0.5-0.6,1.1-1.2,1.6-1.8c4.4-5.7,8.9-11.1,14.8-15.3c11-7.7,23-8.9,35.4-4.8c8.5,2.8,13,9.2,13.3,18c0.2,5.8-0.6,11.7-1.3,17.4
			c-2.1,17-4.4,33.9-6.6,50.8c-0.2,1.1-0.4,2.2-0.5,3.4c-0.4,2.9,0.4,4,3.3,4.6l2,0.4c-0.2,0.4-0.4,0.6-0.5,1
			c-9.5,7.2-19.6,13.4-31.4,15.8c-3.9,0.8-8,0.9-11.9,0.4c-9.5-1.3-15.5-8.5-16.6-18.8c-0.7-6.7,0.5-13.2,1.5-19.7
			c2.4-15.8,4.8-31.7,7.2-47.6c0.4-2.6-0.6-3.5-2.9-2.4c-2.3,1-4.4,2.3-6.3,3.8c-9.6,8.4-19.3,16.9-28.6,25.5
			c-15.5,14.2-30.7,28.9-46.2,43.1c-4.1,3.7-8.6,7.1-13.4,10c-7.7,4.8-16.2,6.1-25,4.4c-12.5-2.4-19.3-12-17.7-25.3
			c2-16.5,4.2-32.9,6.3-49.4c1.1-8.6,2-17.1,3-25.6c0.5-2.1-0.5-4.2-2.5-5c-0.7-0.4-1.4-0.9-2.1-1.4L13.5,94.5z"/>
		<path d="M509,94.5c20-1.5,40.1-2,60.4-3.1c-0.5,4.2-1,8-1.5,11.8c-3.2,25.3-6.3,50.6-9.5,75.8c0,0.9,0.1,1.8,0.4,2.6
			c0.9-0.4,2-0.5,2.5-1.2c2-2.6,3.7-5.4,5.2-8.4c3.7-8,5.3-16.7,6.7-25.5c1.8-12.4,3.7-24.7,5.4-37c0.4-2.8,0.4-5.6,0.7-8.4
			c0.4-2-0.6-4-2.5-4.9c-0.7-0.4-1.3-1.1-1.6-1.9c1.1-0.2,2.2-0.3,3.3-0.4c16-0.7,32-1.5,48.2-2.2l9.2-0.4c-0.8,7.5-1.6,14.8-2.4,22
			l0.5,0.3l1.6-1.7c4.2-4.5,7.9-9.4,12.5-13.4c10.6-9.3,23.2-10.8,36.3-7.3c9.2,2.5,14.7,9.5,14.7,19c0,7-1,14.2-1.9,21.2
			c-2,16.6-4.4,33-6.6,49.6c-0.5,3.2,0.3,4.3,3.6,5c0.6,0.1,1.1,0.3,1.7,0.5c-0.2,0.4-0.5,0.7-0.8,1c-9.3,7-19.2,13-30.9,15.6
			c-4.6,1.2-9.4,1.2-14.1,0.2c-8.5-2-14-8.9-15-18.5c-0.7-6.7,0.5-13.2,1.5-19.7c2.4-15.8,4.8-31.7,7.2-47.6
			c0.4-2.7-0.6-3.6-3.1-2.3c-2.3,1-4.4,2.3-6.2,3.9c-9.5,8.4-19,16.7-28.4,25.3c-15.6,14.3-30.8,28.9-46.4,43.2
			c-4.1,3.8-8.6,7.1-13.3,10c-8.2,5.2-17.3,6.3-26.6,4.1c-11.4-2.8-17.4-12.1-15.9-24.8c2-16.6,4.3-33.1,6.3-49.7
			c1.1-8.5,2-16.9,3-25.4c0.3-2.4-0.4-3.9-2.4-5c-0.7-0.4-1.4-1-2.1-1.5L509,94.5z"/>
		<path d="M419.1,205.6c-12.1-0.3-23.5-2.9-34.1-8.8c-26.2-14.7-34.7-44.5-20-70.7c10-17.7,25.4-28.6,44.6-34.1s37.8-4.4,55.5,5.2
			c14.9,8.1,24.4,20.3,27.1,37.2c2.4,15.2-2.1,28.9-11.3,41c-12.3,16.3-29.1,25.4-49,28.9C427.6,205,423.4,205.1,419.1,205.6z
			 M436.6,106.1c-0.5-3.7-0.7-8.2-1.5-12.6c-0.4-1.3-1.4-2.4-2.8-2.8c-1.5,0-2.9,0.7-3.8,1.9c-1.3,1.8-2.2,3.7-2.8,5.9
			c-1.4,6.8-2.9,13.5-3.7,20.3c-2.2,18.2-4.4,36.4-6.2,54.8c-0.8,7.5-0.8,15-1,22.5c0,1.8,0.5,3.6,1.3,5.2c0.6,1.8,2.6,2.7,4.4,2.1
			c0.6-0.2,1.1-0.6,1.5-1.1c1.3-1.4,2.3-3,2.9-4.8c1.5-4.8,2.6-9.7,3.3-14.6c1.7-13.2,3.1-26.4,4.6-39.6
			C434,131.3,435.2,119.1,436.6,106.1z"/>
	</g>
	<g>
		<g transform="translate(90.742673, 203.624987)">
		</g>
	</g>
	<g>
		<g transform="translate(122.2975, 203.624987)">
		</g>
	</g>
	<g>
		<g transform="translate(172.718448, 203.624987)">
		</g>
	</g>
	<g>
		<g transform="translate(233.60202, 203.624987)">
		</g>
	</g>
	<g>
		<g transform="translate(265.101217, 203.624987)">
		</g>
	</g>
</g>
<g>
	<g>
		<g transform="translate(58.273464, 224.482706)">
			<g>
				<path d="M4.6,111.3c28.7,0,47.4-13.8,47.4-37.1c0-18.7-10.6-29-34.8-33.9l-12-2.5c-9.7-2.1-13.4-5-13.4-10.1
					c0-5.5,4.3-9.3,11-9.3c7.1,0,12.4,5.1,13.4,13.2c0.1,0.6,0.6,1,1.2,0.9l27.3-5.4c0.5-0.1,0.9-0.6,0.8-1.1
					C43.6,6.4,26.3-5.3,3.6-5.3C-22.8-5.3-40,8.5-40,30.4C-40,49-29.6,59.2-5.5,64.3l12.1,2.6c9.7,2.3,13.7,5.4,13.7,10.6
					c0,5.8-5.7,9.8-14.3,9.8c-9.7,0-17-5.7-18.1-15.9c-0.1-0.6-0.6-1-1.2-0.9L-41.4,75c-0.5,0.1-0.9,0.6-0.8,1.1
					C-40.2,99-21.6,111.3,4.6,111.3z"/>
			</g>
		</g>
	</g>
	<g>
		<g transform="translate(103.274732, 224.482706)">
			<g>
				<path d="M51.8,107.2h31c0.6,0,1-0.4,1-1v-79c0-0.6,0.4-1,1-1h25c0.6,0,1-0.4,1-1v-26c0-0.6-0.4-1-1-1h-86c-0.6,0-1,0.4-1,1v26
					c0,0.6,0.4,1,1,1h26c0.6,0,1,0.4,1,1l0,79C50.8,106.8,51.2,107.2,51.8,107.2z"/>
			</g>
		</g>
	</g>
	<g>
		<g transform="translate(146.02909, 224.482706)">
			<g>
				<path d="M137.6,111.4c30.8,0,48.4-15.6,48.4-42.9V-0.8c0-0.6-0.4-1-1-1h-32c-0.6,0-1,0.4-1,1V66c0,10.6-5.7,17-15,17
					c-9.5,0-15-6.6-15-17V-0.8c0-0.6-0.4-1-1-1H90c-0.6,0-1,0.4-1,1v69.2C89.1,95.7,106.8,111.4,137.6,111.4z"/>
			</g>
		</g>
	</g>
	<g>
		<g transform="translate(195.212097, 224.482706)">
			<g>
				<path d="M160.9,107.2c0,0.6,0.4,1,1,1h43.7c36.6,0,56.7-19.8,56.7-55c0-35.3-20-55-56.4-55h-44c-0.6,0-1,0.4-1,1V107.2z
					 M193.9,81.2v-56c0-0.6,0.4-1,1-1h11.2c15.3,0,23.6,10.3,23.6,29c0,18.5-8.3,29-23.6,29h-11.2C194.3,82.2,193.9,81.8,193.9,81.2
					z"/>
			</g>
		</g>
	</g>
	<g>
		<g transform="translate(245.393738, 224.482706)">
			<g>
				<path d="M234.7,108.2h32c0.6,0,1-0.4,1-1v-108c0-0.6-0.4-1-1-1h-31c-0.6,0-1,0.4-1,1L234.7,108.2L234.7,108.2z"/>
			</g>
		</g>
	</g>
	<g>
		<g transform="translate(269.292982, 224.482706)">
			<g>
				<path d="M320.5,111.3c32.4,0,53.5-22.8,53.5-57.7c0-35-21.2-57.7-53.5-57.7S267,18.6,267,53.6C267,88.5,288.1,111.3,320.5,111.3
					z M320.5,94.6c-20.9,0-34.3-16.1-34.3-40.9c0-25,13.5-41.1,34.3-41.1c20.9,0,34.2,16.1,34.2,41.1
					C354.7,78.5,341.3,94.6,320.5,94.6z"/>
			</g>
		</g>
		<g transform="translate(58.273464, 224.482706)">
			<g>
				<path d="M506.1,53.5c0,12.5,6,20.6,16.2,20.6c8.1,0,12.6-4.6,14.7-15.1l1.1-5.2c0.9-4.2,2.2-5.8,4.4-5.8c2.4,0,4.1,1.9,4.1,4.8
					c0,2.9-2,5.2-5.2,5.8c-0.5,0.1-0.9,0.6-0.8,1.2l2.1,10.8c0.1,0.5,0.6,0.9,1.1,0.8c8.2-1.1,13.1-8.6,13.1-18.2
					c0-11.5-6-19-15.5-19c-8.1,0-12.5,4.5-14.7,15l-1.1,5.3c-1,4.2-2.3,5.9-4.6,5.9c-2.5,0-4.3-2.5-4.3-6.2c0-4,2.3-7.1,6.4-7.8
					c0.5-0.1,0.9-0.6,0.8-1.2L522,34c-0.1-0.5-0.6-0.9-1.1-0.8C511.3,34.4,506.1,42.4,506.1,53.5z"/>
			</g>
		</g>
	</g>
	<g>
		<g>
			<g transform="translate(269.292982, 224.482706)">
				<g>
					<path d="M534.5,110.5c32.4,0,53.5-22.8,53.5-57.7c0-35-21.2-57.7-53.5-57.7S481,17.8,481,52.8
						C480.9,87.7,502.1,110.5,534.5,110.5z M534.5,93.8c-20.9,0-34.3-16.1-34.3-40.9c0-25,13.5-41.1,34.3-41.1
						c20.9,0,34.2,16.1,34.2,41.1C568.7,77.7,555.3,93.8,534.5,93.8z"/>
				</g>
			</g>
		</g>
		<g>
			<g transform="translate(58.273464, 224.482706)">
				<g>
					<path d="M773.1,52.7c0,12.5-6,20.6-16.2,20.6c-8.1,0-12.6-4.6-14.7-15.1l-1.1-5.2c-0.9-4.2-2.2-5.8-4.4-5.8
						c-2.4,0-4.1,1.9-4.1,4.8c0,2.9,2,5.2,5.2,5.8c0.5,0.1,0.9,0.6,0.8,1.2l-2.1,10.8c-0.1,0.5-0.6,0.9-1.1,0.8
						c-8.2-1.1-13.1-8.6-13.1-18.2c0-11.5,6-19,15.5-19c8.1,0,12.5,4.5,14.7,15l1.1,5.3c1,4.2,2.3,5.9,4.6,5.9
						c2.5,0,4.3-2.5,4.3-6.2c0-4-2.3-7.1-6.4-7.8c-0.5-0.1-0.9-0.6-0.8-1.1l1.8-11.1c0.1-0.5,0.6-0.9,1.1-0.8
						C767.9,33.5,773.1,41.6,773.1,52.7z"/>
				</g>
			</g>
		</g>
	</g>
	<path d="M731,329.5C731,329.6,731,329.6,731,329.5c0,24.9-13.4,41-34.2,41c-20.9,0-34.3-16.1-34.3-40.9v-0.1h-17.2
		c-1.1,0-2,0.9-2,2c0.8,33.8,21.7,55.7,53.5,55.7c31.8,0,52.7-21.9,53.5-55.7c0-1.1-0.9-2-2-2H731z"/>
</g>
</svg>
