<?xml version="1.0" encoding="utf-8"?>
<!-- Generator: Adobe Illustrator 26.3.1, SVG Export Plug-In . SVG Version: 6.00 Build 0)  -->
<svg version="1.1" id="Layer_1" xmlns="http://www.w3.org/2000/svg" xmlns:xlink="http://www.w3.org/1999/xlink" x="0px" y="0px"
	 viewBox="0 0 877.4 393.6" style="enable-background:new 0 0 877.4 393.6;" xml:space="preserve">
<style type="text/css">
	.st0{fill:#FFFFFF;}
</style>
<g>
	<path class="st0" d="M868,11.6c-6.4,1.5-9.1,6.3-11.2,11.6c-3.6,8.7-4.6,17.9-5.8,27.2c-3.7,31.8-7.6,63.6-11.3,95.3
		c-1.3,11-2.8,22.1-4.2,33c-0.4,2.6,0.5,3.8,3,4.5c0.7,0.2,1.5,0.4,2.5,0.5c-0.2,0.4-0.6,0.8-0.9,1.2c-10.2,7.7-21.4,13.6-34.3,15.6
		c-4.8,0.8-9.7,0.6-14.4-0.6c-8.4-2.4-12.9-8.4-12.7-17.2v-3.4c-0.6,1-1,1.4-1.3,2c-9.2,16.4-31.5,23.2-48.3,14.9
		c-6-2.9-10.7-7.8-13.3-13.9c-4.3-9.7-6.1-20.3-5.4-30.9c0.6-14.9,5.8-29.2,15-40.9c8.2-10.7,19.3-16.8,31.7-21.2
		c7.1-2.5,14.6-4,22.1-4.5c4.2-0.3,8.5-0.4,12.5,1.9c0.5-4.2,1.1-8.2,1.6-12.3c1.3-10.3,2-20.7,4.1-31c3.7-18.1,15.5-29.7,31.9-37
		c8.4-3.8,17.2-5.4,26.4-3.4c4.2,0.9,8.1,3.1,11,6.2c0.3,0.4,0.7,0.9,1.1,1.3C867.8,10.9,867.9,11.3,868,11.6z M786.9,103.8
		c-0.3-3.1-0.5-6.8-1-10.4c-0.3-2-1.2-3.9-3.5-4.3s-4,1.1-5.1,3c-0.7,1.1-1.2,2.4-1.6,3.7c-0.9,3-1.6,6.1-2.1,9.3
		c-1.7,13.1-3.2,26.1-4.6,39.2c-0.8,7.3-1.6,14.6-2,21.9c-0.1,3,0.3,6,1.2,8.9c1.1,3.6,5,4.2,7.6,1.4c1-1.1,1.7-2.3,2.1-3.6
		c1-2.5,1.7-5.1,2.1-7.8c1.3-9.9,2.6-19.9,3.7-29.7C784.8,125,785.8,114.7,786.9,103.8z"/>
	<path class="st0" d="M275.8,110c0.5-0.6,1.1-1.2,1.5-1.9c4.3-5.4,8.8-10.7,14.4-14.7c8.1-6,18.4-8.2,28.3-6c8.9,1.7,15.4,7,19.6,15
		c4,7.7,5.4,16.1,6.3,24.6c1.7,14.6-2.3,27.6-10.1,39.9c-9.1,14.2-20.8,24.7-37.1,29.6c-10.6,3.2-21.8,4.3-32.9,3.3
		c-5.9-0.4-11.7-1.3-17.5-2.8c-17.1-4.3-27.2-15.5-30.5-32.7c-2.1-10.7-2-21.5-0.6-32.1c3.3-27.3,6.8-54.5,10.1-81.7
		c0.3-2.2,0.4-4.3,0.4-6.5c0-3.4-1.3-4.5-4.7-4.2c-1.8,0.2-3.6,0.6-5.9,1c0.3-0.8,0.6-1.5,1.1-2.2c5.4-7.1,11.2-13.8,18.7-18.8
		c7.8-5.4,17.5-7.5,26.9-5.9c12.1,2,19.4,10.5,19.3,23.2c0,5.9-1,11.8-1.7,17.6c-2,17-4.2,33.9-6.2,50.9c-0.1,1.5-0.1,3,0,4.4
		L275.8,110z M268.2,179.7c0,2.5-0.2,5.1,0,7.6c0.2,2.2,0.6,4.3,1.2,6.4c1.1,3,3.9,3.4,5.8,0.8c1.1-1.5,2-3.1,2.5-4.9
		c1.3-4.5,2.3-9.1,2.9-13.8c2-16.6,3.8-33.1,5.4-49.7c0.5-4.9,0.7-9.8,0.7-14.8c0-1.3-1-2.8-1.5-4.1c-1.4,0.5-3.3,0.7-4.2,1.8
		c-2,2.3-3.7,4.9-4.9,7.8c-1.2,2.8-1.5,6.1-2,9.3C271.3,143.8,269.6,161.7,268.2,179.7L268.2,179.7z"/>
	<path class="st0" d="M13.2,91.4c20-1.5,40.1-2,60.5-3.1c-0.6,5.2-1.2,10-1.9,14.9c-3,24.3-6.1,48.6-9.2,72.9c0,0.9,0.2,1.7,0.4,2.6
		c0.9-0.4,2-0.5,2.5-1.2c2-2.6,3.7-5.4,5.2-8.4c3.7-8.1,5.3-16.7,6.7-25.5c1.8-12.3,3.7-24.7,5.4-37c0.4-2.7,0.4-5.4,0.7-8.2
		c0.4-2.1-0.6-4.1-2.5-5.1c-0.6-0.3-1.2-0.8-1.7-1.3c1.5-1,54.9-3.9,60.8-3.5c-0.8,7.2-1.5,14.5-2.3,21.8l0.5,0.3
		c0.5-0.6,1.1-1.2,1.6-1.8c4.4-5.7,8.9-11.1,14.8-15.3c11-7.7,23-8.9,35.4-4.8c8.5,2.8,13,9.2,13.3,18c0.2,5.8-0.6,11.7-1.3,17.4
		c-2.1,17-4.4,33.9-6.6,50.8c-0.2,1.1-0.4,2.2-0.5,3.4c-0.4,2.9,0.4,4,3.3,4.6l2,0.4c-0.2,0.4-0.4,0.6-0.5,1
		c-9.5,7.2-19.6,13.4-31.4,15.8c-3.9,0.8-8,0.9-11.9,0.4c-9.5-1.3-15.5-8.5-16.6-18.8c-0.7-6.7,0.5-13.2,1.5-19.7
		c2.4-15.8,4.8-31.7,7.2-47.6c0.4-2.6-0.6-3.5-2.9-2.4c-2.3,1-4.4,2.3-6.3,3.8c-9.6,8.4-19.3,16.9-28.6,25.5
		c-15.5,14.2-30.7,28.9-46.2,43.1c-4.1,3.7-8.6,7.1-13.4,10c-7.7,4.8-16.2,6.1-25,4.4c-12.5-2.4-19.3-12-17.7-25.3
		c2-16.5,4.2-32.9,6.3-49.4c1.1-8.6,2-17.1,3-25.6c0.5-2.1-0.5-4.2-2.5-5c-0.7-0.4-1.4-0.9-2.1-1.4L13.2,91.4z"/>
	<path class="st0" d="M508.5,91.4c20-1.5,40.1-2,60.4-3.1c-0.5,4.2-1,8-1.5,11.8c-3.2,25.3-6.3,50.6-9.5,75.8c0,0.9,0.1,1.8,0.4,2.6
		c0.9-0.4,2-0.5,2.5-1.2c2-2.6,3.7-5.4,5.2-8.4c3.7-8,5.3-16.7,6.7-25.5c1.8-12.4,3.7-24.7,5.4-37c0.4-2.8,0.4-5.6,0.7-8.4
		c0.4-2-0.6-4-2.5-4.9c-0.7-0.4-1.3-1.1-1.6-1.9c1.1-0.2,2.2-0.3,3.3-0.4c16-0.7,32-1.5,48.2-2.2l9.2-0.4c-0.8,7.5-1.6,14.8-2.4,22
		l0.5,0.3l1.6-1.7c4.2-4.5,7.9-9.4,12.5-13.4c10.6-9.3,23.2-10.8,36.3-7.3c9.2,2.5,14.7,9.5,14.7,19c0,7-1,14.2-1.9,21.2
		c-2,16.6-4.4,33-6.6,49.6c-0.5,3.2,0.3,4.3,3.6,5c0.6,0.1,1.1,0.3,1.7,0.5c-0.2,0.4-0.5,0.7-0.8,1c-9.3,7-19.2,13-30.9,15.6
		c-4.6,1.2-9.4,1.2-14.1,0.2c-8.5-2-14-8.9-15-18.5c-0.7-6.7,0.5-13.2,1.5-19.7c2.4-15.8,4.8-31.7,7.2-47.6c0.4-2.7-0.6-3.6-3.1-2.3
		c-2.3,1-4.4,2.3-6.2,3.9c-9.5,8.4-19,16.7-28.4,25.3c-15.6,14.3-30.8,28.9-46.4,43.2c-4.1,3.8-8.6,7.1-13.3,10
		c-8.2,5.2-17.3,6.3-26.6,4.1c-11.4-2.8-17.4-12.1-15.9-24.8c2-16.6,4.3-33.1,6.3-49.7c1.1-8.5,2-16.9,3-25.4c0.3-2.4-0.4-3.9-2.4-5
		c-0.7-0.4-1.4-1-2.1-1.5L508.5,91.4z"/>
	<path class="st0" d="M418.6,202.5c-12.1-0.3-23.5-2.9-34.1-8.8c-26.2-14.7-34.7-44.5-20-70.7c10-17.7,25.4-28.6,44.6-34.1
		s37.8-4.4,55.5,5.2c14.9,8.1,24.4,20.3,27.1,37.2c2.4,15.2-2.1,28.9-11.3,41c-12.3,16.3-29.1,25.4-49,28.9
		C427.1,201.9,422.9,202,418.6,202.5z M436.1,103c-0.5-3.7-0.7-8.2-1.5-12.6c-0.4-1.3-1.4-2.4-2.8-2.8c-1.5,0-2.9,0.7-3.8,1.9
		c-1.3,1.8-2.2,3.7-2.8,5.9c-1.4,6.8-2.9,13.5-3.7,20.3c-2.2,18.2-4.4,36.4-6.2,54.8c-0.8,7.5-0.8,15-1,22.5c0,1.8,0.5,3.6,1.3,5.2
		c0.6,1.8,2.6,2.7,4.4,2.1c0.6-0.2,1.1-0.6,1.5-1.1c1.3-1.4,2.3-3,2.9-4.8c1.5-4.8,2.6-9.7,3.3-14.6c1.7-13.2,3.1-26.4,4.6-39.6
		C433.5,128.2,434.7,116,436.1,103z"/>
</g>
<g>
	<path class="st0" d="M532.1,216.9c32.5-1.5,55.3,27.5,57.4,50.5c1.6,16.8-2.1,32.6-14.1,45.4c-11.7,12.6-26,19.5-43.5,19.9
		c-31.4,0.8-58.7-28.1-58-59.6C474.4,245.4,500.7,214.9,532.1,216.9z M532.3,240.3c-18.2-0.6-34.9,14.9-34.9,34.7
		c0.1,18.3,15.5,33.9,34.3,33.9c18.7,0.1,34.2-15.2,34.5-33.8C566.6,257.4,551.4,239.8,532.3,240.3z"/>
	<path class="st0" d="M784.1,217.1c30.3-1.4,56.2,27.1,56.9,55.7c0.8,33.6-27.4,59.9-58.1,59.8c-29.7,0-58.3-26.1-57.5-59.7
		C726.1,243.7,752.6,215,784.1,217.1z M817.5,275.2c0.2-19.3-14.9-34.6-34.3-34.9c-18.7-0.2-33.9,14.9-34.2,33.9
		s14.8,34.5,33.8,34.7C801.8,309.1,817.3,294.1,817.5,275.2z"/>
	<path class="st0" d="M327.1,274.3c0-16.9,0-33.8,0-50.7c0-4,1.1-5.2,5.1-5.2c9.4,0.1,18.8,0.1,28.3,0.4
		c23.7,0.6,44.1,16.6,51.3,39.2c7.7,24.2-1.9,50.3-23.4,64.1c-9.2,5.9-19.4,8.7-30.4,8.8c-8.5,0.1-16.9,0-25.4,0
		c-4.3,0-5.6-1.3-5.6-5.5C327.1,308.3,327.1,291.3,327.1,274.3L327.1,274.3z M350,276.9c0.1,0,0.2,0,0.3,0c0,8.8,0,17.5,0,26.3
		c0,4.3,0.9,5.2,5,5.1c2.7-0.1,5.4-0.1,7.9-0.6c12.7-2.6,21.9-9.7,26.2-22.1c4.8-13.9,1.4-26-9.6-35.9c-7.1-6.4-15.6-7.9-24.8-7.7
		c-4.4,0.1-5.2,0.9-5.2,5.2C350.1,257,350,266.9,350,276.9z"/>
	<path class="st0" d="M301.9,257.7c0,11,0.3,22-0.1,33c-0.4,15.1-7.6,26.9-19.9,35.1c-13,8.7-27.2,10-41.5,3.2
		c-16.9-8.1-25.9-21.8-26.2-40.7c-0.3-21.5-0.2-43-0.2-64.5c0-4.3,1.1-5.5,5.5-5.5c4.5,0,9,0,13.5,0c3.6,0,5,1.3,5,4.8
		c-0.1,20.6-0.1,41.3-0.3,61.9c0,5.8,0.7,11.2,4,16.1c4.3,6.4,15,9.5,20.9,7.9c10-2.7,15.6-11.8,15.6-19.6c-0.1-21.8,0-43.6,0-65.5
		c0-5.1,0.6-5.8,5.7-5.7c4.2,0,8.4,0,12.5,0s5.3,1.2,5.3,5.4C301.9,235,301.8,246.3,301.9,257.7
		C301.8,257.7,301.9,257.7,301.9,257.7z"/>
	<path class="st0" d="M50.3,332.8c-9.4,0.2-19.1-2.4-27.9-7.4c-4.7-2.7-8.9-6.4-13.1-9.9c-1.9-1.5-1.5-4.1,0.1-5.6
		c2.6-2.3,5.2-4.7,7.8-7c1.5-1.3,3-2.7,4.8-3.5c1-0.4,2.8-0.1,3.7,0.6c5.7,4.5,12.1,7.9,19.1,9.3c4.6,0.9,9.8,1.8,14.4-1.2
		c7.2-4.7,9.3-13.3-1.3-19.1c-5.2-2.9-11.1-4.7-16.8-6.6c-13.6-4.6-23.7-12.8-26.4-27.3c-2.9-15.8,4.5-28.6,19.1-34.7
		c14.7-6.2,28.8-3.6,42.3,4.1c2.4,1.4,4.7,2.8,7.1,4.2c2.3,1.3,2.3,3.2,1.2,5.2c-2.6,4.3-5.2,8.5-7.9,12.7c-2,3.2-3.6,3.4-6.8,1
		c-4.9-3.6-10.2-6.1-16.2-7.2c-4.3-0.8-8.3-0.1-12.1,1.9c-4,2.2-5.3,9.3-1.9,12.6c2.2,2.1,5.1,4.1,8,5c8.6,2.5,16.9,5.5,24.3,10.7
		c8.2,5.8,14.4,13.1,16.2,23.3c1.9,10.3-1.8,18.9-8.1,26.7C72.4,329.9,62.6,333.3,50.3,332.8z"/>
	<path class="st0" d="M137.4,286.8c0-13.2,0-26.3,0-39.5c0-3.7-1.1-4.9-4.7-4.9c-7.2,0-14.4,0-21.5,0c-3.7,0-4.7-0.9-4.7-4.7
		c0-5,0-10.1,0-15.1c0-4.2,1.1-5.3,5.2-5.2c10.3,0,20.6,0.1,30.8,0.1c15.1,0,30.2-0.1,45.3-0.1c2.6,0,4.4,1,4.3,4.1
		c-0.1,5.9-0.1,11.8,0,17.6c0,2.4-1,3.4-3.5,3.3c-7.7-0.1-15.4,0-23.1-0.1c-3-0.1-4.2,1.1-4.2,4.1c0.1,26.8,0,53.6,0.1,80.5
		c0,4.1,0.1,4.2-4,4.2c-5.2,0-10.5,0-15.7,0c-3.6,0-4.2-0.7-4.3-4.3c0-4.3,0.1-8.6,0.1-12.8C137.5,305,137.5,295.9,137.4,286.8
		C137.5,286.8,137.4,286.8,137.4,286.8z"/>
	<path class="st0" d="M613.4,330c2.6,0,5.1,0,7.7,0c2.4,0,4,1.5,4,3.7c0.2,6.1,2.6,11.4,6,16c10,13.7,27.6,17.9,42.7,10.1
		c10.1-5.2,16.3-13.7,17.4-25.3c0.3-3.1,1.9-4.5,4.7-4.5c5.2-0.1,10.5-0.1,15.8-0.1c2.8,0,3.8,1.9,3.7,4.3c-0.2,8.4-2.5,16.3-7,23.4
		c-3,4.7-6.2,9.6-10.2,13.4c-9.5,9.1-20.7,15-34.2,16.1c-21.1,1.8-37.8-5.9-50.9-22c-6.8-8.3-10-18.3-11.8-28.7
		c-0.9-5,0.6-6.4,5.7-6.4C609.1,330,611.2,330,613.4,330L613.4,330z"/>
	<path class="st0" d="M456,331.2c-7.2,0-13.9,0-20.7,0c-2,0-3-0.8-2.9-2.9c0.1-1.8,0-3.6,0-5.5c0-32.7,0-65.5,0-98.2
		c0-6.3-0.1-6.6,6-7c4.7-0.3,9.4,0.3,14.1,0.2c3.8-0.1,3.8,2.5,3.8,4.8c0,33.4-0.2,66.8-0.3,100.1C456,325.4,456,328.1,456,331.2z"
		/>
	<path class="st0" d="M508.1,275.4c-0.1-3.8,1-7.6,2.9-11.1c1.1-1.9,2.6-3.5,3.9-5.2c0.6-0.7,1.6-0.6,2.2,0.1
		c0.9,1.1,1.9,2.1,2.8,3.1c0.5,0.6,1.1,1.2,1.4,1.9c0.2,0.4,0,1.1-0.2,1.5c-1.8,2.3-3.2,4.8-3.7,7.6c-0.4,1.8-0.7,3.9,0.5,5.7
		c1.9,2.9,5.3,3.7,7.6-0.5c1.1-2.1,1.9-4.4,2.6-6.7c1.8-5.4,5.1-9.4,10.9-10.5c6.3-1.1,11.4,1.8,13.8,7.6c2.5,5.9,1.4,11.5-1.6,16.8
		c-0.5,1-1.1,1.9-1.7,2.8c-0.5,0.9-1.3,0.9-2.1,0.5c-1.7-1-3.4-2.1-5-3.1c-1.3-0.8-1.4-1.4-0.4-2.7c1.4-1.9,2.4-4.1,2.9-6.5
		c0.3-1.7,0-3.3-0.8-4.8c-0.9-1.6-3.7-2.1-5-0.8c-0.8,0.9-1.6,2-2,3.2c-1,3.4-2.2,6.7-4.3,9.7c-2.3,3.3-5.2,5.7-9.3,6.5
		s-7.5-0.7-10.6-3.2C509.3,284.2,507.9,280.3,508.1,275.4z"/>
	<path class="st0" d="M805.7,275.5c0.1-3.8-1-7.6-2.9-11.1c-1.1-1.9-2.6-3.5-3.9-5.2c-0.6-0.7-1.6-0.6-2.2,0.1
		c-0.9,1.1-1.9,2.1-2.8,3.1c-0.5,0.6-1.1,1.2-1.4,1.9c-0.2,0.4,0,1.1,0.2,1.5c1.8,2.3,3.2,4.8,3.7,7.6c0.4,1.8,0.7,3.9-0.5,5.7
		c-1.9,2.9-5.3,3.7-7.6-0.5c-1.1-2.1-1.9-4.4-2.6-6.7c-1.8-5.4-5.1-9.4-10.9-10.5c-6.3-1.1-11.4,1.8-13.8,7.6
		c-2.5,5.9-1.4,11.5,1.6,16.8c0.5,1,1.1,1.9,1.7,2.8c0.5,0.9,1.3,0.9,2.1,0.5c1.7-1,3.4-2.1,5-3.1c1.3-0.8,1.4-1.4,0.4-2.7
		c-1.4-1.9-2.4-4.1-2.9-6.5c-0.3-1.7,0-3.3,0.8-4.8c0.9-1.6,3.7-2.1,5-0.8c0.8,0.9,1.6,2,2,3.2c1,3.4,2.2,6.7,4.3,9.7
		c2.3,3.3,5.2,5.7,9.3,6.5s7.5-0.7,10.6-3.2C804.5,284.3,805.9,280.4,805.7,275.5z"/>
</g>
</svg>
