<svg id="Layer_1" data-name="Layer 1" xmlns="http://www.w3.org/2000/svg" viewBox="0 0 301.01 176">
  <path d="M7.91,7.76C38.78,5.48,69.73,4.74,101,3L98.18,25.77Q91,81.93,84,138a15.25,15.25,0,0,0,.6,3.92c1.34-.62,3.1-.91,3.81-1.93a86.67,86.67,0,0,0,8-12.86A141.14,141.14,0,0,0,106.72,88c2.84-18.95,5.69-37.89,8.36-56.9.6-4.1.65-8.39,1.11-12.6a6.92,6.92,0,0,0-.63-4.58,7.07,7.07,0,0,0-3.27-3.28,24,24,0,0,1-2.53-2c2.36-1.48,84.61-6,93.72-5.29l-3.59,33.57.86.37a30.53,30.53,0,0,0,2.41-2.84A106.92,106.92,0,0,1,225.92,11C242.82-.83,261.4-2.77,280.61,3.52A28,28,0,0,1,301,31.17,170.8,170.8,0,0,1,299,58c-3.25,26.12-6.83,52.18-10.22,78.24-.2,1.71-.57,3.42-.8,5.15-.56,4.44.72,6.2,5.07,7.14l3.07.69a4.75,4.75,0,0,1-.85,1.48c-14.65,11.09-30.19,20.62-48.51,24.21a57.17,57.17,0,0,1-18.41.62c-14.68-2-23.9-13.06-25.6-29-1.14-10.3.79-20.29,2.33-30.33l11.15-73.12c.6-3.95-1-5.35-4.52-3.64a42.33,42.33,0,0,0-9.7,5.89c-14.91,13-29.79,26-44.3,39.32-24,22-47.31,44.35-71.24,66.26a142.57,142.57,0,0,1-20.57,15.36,52.69,52.69,0,0,1-38.58,6.86c-19-3.5-29.45-18.35-26.94-38.78C3.44,109,6.85,83.72,10,58.32c1.65-13.09,3-26.24,4.72-39.35a6.55,6.55,0,0,0-3.84-7.63A33.63,33.63,0,0,1,7.76,9.21Z"/>
</svg>
