<?xml version="1.0" encoding="utf-8"?>
<!-- Generator: Adobe Illustrator 26.3.1, SVG Export Plug-In . SVG Version: 6.00 Build 0)  -->
<svg version="1.1" id="Layer_1" xmlns="http://www.w3.org/2000/svg" xmlns:xlink="http://www.w3.org/1999/xlink" x="0px" y="0px"
	 viewBox="0 0 971.4 359.1" style="enable-background:new 0 0 971.4 359.1;" xml:space="preserve">
<style type="text/css">
	.st0{fill:none;stroke:#000000;stroke-width:5;stroke-miterlimit:4.58;}
</style>
<g>
	<path d="M968.9,10.6c-7.2,1.7-10.2,7.1-12.6,13c-4,9.8-5.2,20.1-6.5,30.5c-4.2,35.7-8.5,71.4-12.7,107.1
		c-1.5,12.4-3.2,24.8-4.7,37.1c-0.4,2.9,0.6,4.3,3.4,5c0.8,0.2,1.7,0.4,2.8,0.6c-0.3,0.5-0.6,0.9-1,1.3c-11.5,8.7-24,15.3-38.5,17.5
		c-5.4,0.9-10.9,0.7-16.2-0.7c-9.4-2.7-14.5-9.5-14.2-19.3c0-1,0-2,0-3.8c-0.7,1.1-1.1,1.6-1.5,2.2c-10.3,18.4-35.4,26.1-54.3,16.8
		c-6.7-3.2-12-8.8-15-15.6c-5-11-6.7-22.7-6.1-34.7c0.7-16.7,6.5-32.8,16.8-46c9.2-12,21.7-18.9,35.6-23.8c8-2.8,16.3-4.5,24.8-5.1
		c4.7-0.3,9.5-0.4,14.1,2.1c0.6-4.7,1.2-9.2,1.8-13.8c1.5-11.6,2.3-23.3,4.6-34.8c4.1-20.3,17.4-33.4,35.8-41.6
		c9.4-4.2,19.3-6.1,29.6-3.8c4.8,1,9.1,3.4,12.4,7c0.4,0.5,0.8,1,1.2,1.5C968.6,9.8,968.8,10.2,968.9,10.6z M877.8,114.1
		c-0.3-3.5-0.6-7.6-1.1-11.7c-0.3-2.2-1.3-4.4-3.9-4.8s-4.5,1.2-5.7,3.4c-0.8,1.3-1.4,2.7-1.8,4.1c-1,3.4-1.8,6.9-2.4,10.4
		c-1.9,14.7-3.6,29.3-5.2,44c-0.9,8.2-1.8,16.4-2.2,24.6c-0.1,3.4,0.3,6.8,1.3,10c1.2,4,5.6,4.7,8.5,1.6c1.1-1.2,1.9-2.6,2.4-4.1
		c1.1-2.8,1.9-5.7,2.4-8.7c1.5-11.1,2.9-22.3,4.1-33.4C875.4,138,876.5,126.4,877.8,114.1z"/>
	<path d="M303.7,121.1c0.6-0.7,1.2-1.4,1.7-2.1c4.8-6.1,9.9-12,16.2-16.5c9.6-6.9,20.3-9.1,31.8-6.8c10,1.9,17.3,7.9,22,16.9
		c4.5,8.6,6.1,18.1,7.1,27.6c1.9,16.4-2.6,31-11.4,44.8c-10.2,15.9-23.4,27.7-41.7,33.3c-11.9,3.6-24.5,4.8-36.9,3.7
		c-6.6-0.5-13.2-1.5-19.6-3.1c-19.2-4.8-30.5-17.4-34.3-36.7c-2.4-12-2.2-24.1-0.7-36.1c3.7-30.6,7.6-61.2,11.4-91.7
		c0.3-2.4,0.5-4.9,0.5-7.3c0-3.8-1.5-5.1-5.3-4.7c-2,0.2-4,0.7-6.6,1.1c0.3-0.9,0.7-1.7,1.2-2.5c6.1-8,12.6-15.5,21-21.1
		c8.8-6.1,19.7-8.4,30.2-6.6c13.6,2.2,21.8,11.8,21.7,26c0,6.6-1.1,13.2-1.9,19.8c-2.3,19.1-4.7,38.1-7,57.2c-0.1,1.7-0.1,3.3,0,5
		L303.7,121.1z M295.2,199.4c0,2.8-0.2,5.7,0,8.5c0.2,2.4,0.6,4.8,1.4,7.2c1.2,3.4,4.4,3.8,6.5,0.9c1.3-1.6,2.2-3.5,2.8-5.5
		c1.5-5.1,2.6-10.3,3.3-15.5c2.2-18.6,4.2-37.2,6.1-55.8c0.6-5.5,0.8-11,0.8-16.6c0-1.5-1.1-3.1-1.7-4.6c-1.6,0.6-3.7,0.8-4.7,2
		c-2.3,2.6-4.1,5.5-5.5,8.7c-1.3,3.2-1.7,6.9-2.3,10.4C298.6,159,296.7,179.2,295.2,199.4z"/>
	<path d="M8.7,100.2c22.5-1.7,45-2.2,67.9-3.5c-0.7,5.8-1.4,11.2-2.1,16.7c-3.4,27.3-6.9,54.6-10.3,81.9c0,1,0.2,1.9,0.4,2.9
		c1-0.4,2.3-0.6,2.8-1.4c2.2-3,4.2-6.1,5.8-9.4c4.2-9.1,6-18.8,7.5-28.6c2-13.8,4.1-27.7,6.1-41.5c0.4-3,0.5-6.1,0.8-9.2
		c0.4-2.3-0.7-4.7-2.8-5.7c-0.7-0.4-1.3-0.9-1.9-1.5c1.7-1.1,61.7-4.4,68.3-3.9c-0.9,8.1-1.7,16.3-2.6,24.5l0.6,0.3
		c0.6-0.7,1.2-1.3,1.8-2c4.9-6.4,10-12.5,16.6-17.2c12.3-8.6,25.8-10,39.8-5.4c9.5,3.1,14.6,10.3,14.9,20.2
		c0.2,6.5-0.7,13.1-1.5,19.6c-2.4,19.1-5,38.1-7.4,57.1c-0.2,1.2-0.4,2.5-0.6,3.8c-0.4,3.2,0.5,4.5,3.7,5.2l2.3,0.5
		c-0.2,0.4-0.4,0.7-0.6,1.1c-10.7,8.1-22,15.1-35.3,17.7c-4.4,0.9-9,1-13.4,0.4c-10.7-1.5-17.4-9.5-18.7-21.1
		c-0.8-7.5,0.6-14.8,1.7-22.1c2.7-17.8,5.4-35.6,8.1-53.4c0.4-2.9-0.7-3.9-3.3-2.7c-2.5,1.1-4.9,2.6-7.1,4.3
		c-10.8,9.5-21.7,19-32.2,28.7c-17.4,16-34.5,32.4-51.9,48.4c-4.6,4.2-9.7,7.9-15,11.2c-8.6,5.4-18.2,6.8-28.1,5
		c-14-2.7-21.6-13.5-19.8-28.4c2.2-18.5,4.7-37,7.1-55.5c1.2-9.6,2.2-19.2,3.4-28.7c0.4-2.7-0.5-4.4-2.8-5.6c-0.8-0.5-1.6-1-2.3-1.6
		L8.7,100.2z"/>
	<path d="M565,100.2c22.5-1.7,45-2.2,67.9-3.5c-0.6,4.7-1.1,9-1.7,13.3c-3.6,28.4-7.1,56.8-10.7,85.2c0,1,0.1,1.9,0.4,2.9
		c1-0.4,2.3-0.6,2.8-1.3c2.2-3,4.2-6.1,5.9-9.4c4.2-9,6-18.8,7.5-28.6c2-13.9,4.1-27.7,6.1-41.5c0.4-3.1,0.5-6.3,0.8-9.4
		c0.4-2.3-0.7-4.5-2.8-5.5c-0.8-0.5-1.4-1.2-1.8-2.1c1.2-0.2,2.5-0.4,3.7-0.5c18-0.8,36-1.7,54.1-2.5l10.4-0.5
		c-0.9,8.4-1.8,16.6-2.7,24.7l0.6,0.3l1.8-1.9c4.7-5.1,8.9-10.6,14.1-15.1c11.9-10.4,26-12.1,40.8-8.2c10.4,2.8,16.5,10.7,16.5,21.4
		c0,7.9-1.1,15.9-2.1,23.8c-2.3,18.6-4.9,37.1-7.4,55.7c-0.5,3.6,0.4,4.8,4,5.6c0.6,0.1,1.2,0.3,1.9,0.6c-0.3,0.4-0.5,0.7-0.9,1.1
		c-10.5,7.9-21.6,14.6-34.7,17.5c-5.2,1.3-10.6,1.4-15.8,0.2c-9.5-2.3-15.7-10-16.9-20.8c-0.8-7.5,0.6-14.8,1.7-22.1
		c2.7-17.8,5.4-35.6,8.1-53.4c0.5-3-0.7-4-3.5-2.6c-2.5,1.1-4.9,2.6-7,4.4c-10.7,9.4-21.4,18.8-31.9,28.4
		c-17.5,16.1-34.6,32.5-52.1,48.5c-4.6,4.2-9.7,8-15,11.2c-9.2,5.8-19.4,7.1-29.9,4.6c-12.8-3.1-19.6-13.6-17.9-27.8
		c2.2-18.6,4.8-37.2,7.1-55.8c1.2-9.5,2.2-19,3.4-28.5c0.3-2.7-0.4-4.4-2.7-5.6c-0.8-0.5-1.6-1.1-2.4-1.7L565,100.2z"/>
	<path d="M464.1,225c-13.6-0.3-26.4-3.2-38.3-9.9c-29.4-16.5-39-50-22.5-79.4c11.2-19.9,28.5-32.1,50.1-38.3
		c21.5-6.2,42.5-5,62.4,5.8c16.7,9.1,27.4,22.8,30.4,41.8c2.7,17.1-2.4,32.5-12.7,46.1c-13.8,18.3-32.7,28.5-55.1,32.4
		C473.7,224.3,468.9,224.5,464.1,225z M483.7,113.3c-0.5-4.1-0.8-9.2-1.7-14.1c-0.5-1.5-1.6-2.7-3.1-3.2c-1.7,0-3.3,0.8-4.3,2.1
		c-1.5,2-2.5,4.2-3.1,6.6c-1.6,7.6-3.2,15.2-4.2,22.8c-2.5,20.5-4.9,40.9-7,61.5c-0.9,8.4-0.9,16.9-1.1,25.3
		c0.1,2.1,0.5,4.1,1.5,5.9c0.7,2,2.9,3.1,4.9,2.4c0.7-0.2,1.2-0.6,1.7-1.2c1.5-1.5,2.6-3.4,3.3-5.4c1.6-5.4,2.9-10.8,3.7-16.4
		c1.9-14.8,3.5-29.7,5.2-44.5C480.8,141.5,482.2,127.9,483.7,113.3z"/>
</g>
<path class="st0" d="M2.5,280.3c-0.1,2.7,0.9,5.2,2.8,7.1l16.6,16c1.6,1.6,3.8,2.5,6.1,2.7h70.3c1.5-0.1,3,0.5,4,1.6l3.7,4.2
	c0.4,0.7,0.6,1.6,0.6,2.4v5.7c0.1,1.5-0.5,3-1.5,4l-5.3,4.7c-1.4,1.2-2.4,1.8-3.4,1.8H9.8c-1.9,0-3.4,1.5-3.4,3.4c0,0,0,0,0,0.1
	v17.6c0.1,2,1.7,3.6,3.7,3.6h94.4c2.6,0.2,5.2-0.9,6.9-2.8l19.2-19.2c1.7-1.7,2.7-3.9,2.8-6.3V307c0.1-2.7-0.9-5.4-2.8-7.3l-14.4-14
	c-1.7-1.6-3.9-2.5-6.3-2.6H35.5c-1.5,0.1-3-0.5-4-1.6l-3.6-4.5c-0.4-0.7-0.6-1.6-0.6-2.4v-5.1c-0.1-1.6,0.5-3.1,1.6-4.3l5.3-4.9
	c1.4-1.2,2.4-1.8,3.6-1.8h84.4c2,0,3.6-1.6,3.6-3.6l0,0v-15.6c-0.1-1.9-1.7-3.5-3.6-3.4h-91c-2.6-0.2-5.1,0.9-6.9,2.8l-19,18.8
	c-1.7,1.6-2.7,3.8-2.8,6.1L2.5,280.3z M285,236.5H145.1c-2.2,0.1-3.9,1.8-3.9,4v20.1c0,2.2,1.7,4,3.9,4H202v87.1
	c0,2.1,1.6,3.8,3.6,3.9h18.8c2.1-0.1,3.8-1.8,3.9-3.9v-87H285c2.1-0.1,3.8-1.8,3.9-3.9v-20.7C288.8,238.1,287.1,236.5,285,236.5z
	 M305.8,240v83.6c-0.1,2.5,0.9,5,2.8,6.7l25.4,21.8c2.4,1.8,4.5,3,7.7,3h70c3.5,0,5.5-1.2,7.7-3l25.3-21.9c1.9-1.7,2.9-4.1,2.8-6.7
	V240c0-2.1-1.7-3.8-3.8-3.8h-16.8c-2.1,0-3.8,1.7-3.9,3.8l0,0v73.7c0.1,1.7-0.6,3.3-1.8,4.5l-12.5,11.5c-0.7,0.6-1.7,0.9-2.6,0.8
	h-58.7c-1,0.1-1.9-0.2-2.6-0.8l-12.4-11.5c-1.3-1.1-1.9-2.8-1.8-4.5v-73.9c0-2.1-1.7-3.8-3.8-3.9l0,0h-17
	C307.6,236.1,305.9,237.9,305.8,240z M607.1,257.8L585,236.3c-1.8-1.8-4.2-2.8-6.7-2.8H473.1c-2.1,0.1-3.8,1.8-3.9,3.9V350
	c0.1,2.1,1.8,3.8,3.9,3.9h104.5c2.8,0.1,5.6-1,7.5-3l22.1-22.1c1.8-1.8,2.9-4.2,3-6.7v-56.3C610.3,262.7,609.2,259.9,607.1,257.8
	L607.1,257.8z M595.6,316.1c0,1.6-0.6,3.2-1.8,4.2l-7.1,6.5c-1.6,1.2-2.6,2-3.8,2h-76.3v-68.4h76.1c1.7-0.1,3.3,0.6,4.5,1.8l6.5,6.9
	l1.4,1.6c0.6,0.7,0.9,1.7,0.8,2.6V316L595.6,316.1L595.6,316.1z M632.4,353.8h19.2c2.1-0.1,3.8-1.8,3.8-3.9V237.3
	c-0.1-2.1-1.8-3.8-3.8-3.9h-19.2c-2.1,0.1-3.8,1.8-3.8,3.9v112.6C628.6,352,630.3,353.7,632.4,353.8z M670.9,320.6
	c0,2.5,1,4.9,2.8,6.7l22.7,23.3c2,2,4.8,3.1,7.7,3h74.3c2.9,0.2,5.7-0.9,7.7-3l22.7-23.3c1.8-1.7,2.9-4.2,2.8-6.7v-53.9
	c0-2.5-1-4.9-2.8-6.7l-22.7-23.3c-2-2.1-4.8-3.3-7.7-3.2h-74.1c-2.9-0.2-5.8,1-7.7,3.2L673.9,260c-1.8,1.8-2.8,4.2-2.8,6.7v53.9
	H670.9z M705.5,314.7v-40.1c0-1.6,0.6-3.2,1.8-4.2l8.3-7.7l1.6-1.4c0.8-0.6,1.7-0.9,2.6-0.8h62.8c0.9,0,1.9,0.2,2.6,0.8l1.6,1.4
	l8.3,7.7c1.2,1,1.9,2.6,1.8,4.2v40.1c0,1.7-0.7,3.3-1.8,4.5l-8.3,7.7l-1.6,1.2c-0.8,0.5-1.7,0.8-2.6,0.8h-62.8
	c-1,0.1-1.9-0.2-2.6-0.8l-1.6-1.2l-8.3-7.7C706.2,317.9,705.5,316.3,705.5,314.7L705.5,314.7z M827.8,280.7c-0.1,2.9,1,5.7,3,7.7
	l18.2,17.4c1.8,1.4,4,2.8,6.7,2.8h77c1.7-0.1,3.3,0.6,4.5,1.8l3.8,4.6c0.6,0.8,0.9,1.7,0.8,2.6v3c0,1.6-0.6,3.2-1.8,4.3l-3,2.6
	c-1.4,1.2-2.6,2-3.8,2H836c-2.1,0-3.8,1.7-3.8,3.8l0,0v19.2c0.1,2.1,1.8,3.8,3.8,3.8h104.3c2.8,0.1,5.5-1,7.5-3l18.2-18.2
	c1.8-1.8,2.9-4.2,3-6.7V310c0-3.4-1-6.1-3-7.9l-15.6-15.2c-1.8-1.7-4.2-2.8-6.7-2.8h-79.6c-1.7,0-3.3-0.6-4.5-1.8l-3.8-4.7
	c-0.5-0.8-0.8-1.7-0.8-2.6v-3c-0.1-1.7,0.6-3.3,1.8-4.5l4.5-3.9c1.6-1.4,2.6-2,4-2H959c2.1-0.1,3.9-1.7,4-3.9v-17
	c0-2.1-1.7-3.8-3.8-3.8l0,0H858.6c-2.8-0.1-5.6,1-7.5,3l-19.4,19.2c-1.9,1.7-2.9,4.1-3,6.7v14.8L827.8,280.7z"/>
</svg>
