<svg id="Layer_1" data-name="Layer 1" xmlns="http://www.w3.org/2000/svg" viewBox="0 0 965.99 224.99">
  <g>
    <path d="M966,10.58c-7.18,1.71-10.23,7.12-12.63,13-4,9.78-5.25,20.14-6.48,30.51q-6.36,53.57-12.71,107.12c-1.49,12.4-3.15,24.77-4.74,37.15-.37,2.87.61,4.34,3.41,5,.82.2,1.66.35,2.76.58a7.17,7.17,0,0,1-1,1.27c-11.53,8.67-24,15.28-38.48,17.5a37.94,37.94,0,0,1-16.25-.72c-9.43-2.68-14.45-9.52-14.21-19.31v-3.76c-.74,1.1-1.14,1.61-1.45,2.16-10.34,18.39-35.36,26.13-54.33,16.82a31.13,31.13,0,0,1-15-15.61c-5-11-6.71-22.69-6.13-34.69a80.52,80.52,0,0,1,16.77-46c9.16-12,21.66-18.94,35.57-23.77A91.21,91.21,0,0,1,866,92.75c4.73-.27,9.47-.38,14.1,2.12.6-4.7,1.18-9.22,1.76-13.75,1.48-11.6,2.27-23.34,4.6-34.77,4.14-20.28,17.4-33.38,35.84-41.59C931.64.58,941.53-1.31,951.85,1a23,23,0,0,1,12.43,7,14,14,0,0,1,1.19,1.48A8,8,0,0,1,966,10.58ZM874.9,114.13c-.32-3.51-.56-7.61-1.13-11.66-.31-2.22-1.28-4.36-3.94-4.77s-4.47,1.24-5.7,3.42a18.09,18.09,0,0,0-1.81,4.1,83.86,83.86,0,0,0-2.38,10.38q-2.79,22-5.23,44c-.92,8.16-1.76,16.35-2.22,24.55a30.49,30.49,0,0,0,1.28,10c1.2,4,5.64,4.73,8.45,1.57a12,12,0,0,0,2.39-4.05A44.8,44.8,0,0,0,867,183c1.51-11.12,2.86-22.26,4.13-33.4C872.44,138,873.6,126.39,874.9,114.13Z"/>
    <path d="M300.73,121.07c.57-.71,1.17-1.41,1.73-2.13,4.77-6.14,9.88-12,16.23-16.55,9.57-6.91,20.29-9,31.78-6.85,10,1.92,17.27,7.9,22,16.87,4.54,8.62,6.06,18.07,7.14,27.6,1.86,16.35-2.61,31-11.39,44.78-10.16,15.87-23.35,27.73-41.69,33.31a97,97,0,0,1-36.87,3.66,124,124,0,0,1-19.61-3.08c-19.19-4.84-30.48-17.38-34.33-36.68-2.4-12-2.17-24.08-.71-36.13,3.71-30.59,7.62-61.16,11.42-91.74a59.87,59.87,0,0,0,.47-7.33c0-3.8-1.51-5.11-5.34-4.66-2,.23-4,.66-6.63,1.11a17,17,0,0,1,1.23-2.54c6.06-8,12.61-15.47,21-21.13A40.9,40.9,0,0,1,287.41,13c13.58,2.16,21.76,11.77,21.67,26,0,6.6-1.14,13.21-1.94,19.79-2.31,19.06-4.72,38.11-7,57.18a41.7,41.7,0,0,0,0,5Zm-8.47,78.27c0,2.84-.18,5.7.05,8.52A28.72,28.72,0,0,0,293.7,215c1.21,3.41,4.37,3.83,6.55.91a15.87,15.87,0,0,0,2.8-5.45,115.23,115.23,0,0,0,3.32-15.5c2.22-18.59,4.19-37.21,6.1-55.84.56-5.49.76-11,.81-16.56,0-1.54-1.11-3.08-1.71-4.62-1.6.64-3.72.84-4.69,2a33.42,33.42,0,0,0-5.49,8.72c-1.3,3.24-1.68,6.87-2.28,10.37C295.66,159,293.71,179.16,292.26,199.34Z"/>
    <path d="M5.77,100.19c22.49-1.67,45.05-2.2,67.87-3.47-.72,5.78-1.4,11.24-2.09,16.69q-5.16,40.93-10.29,81.88a11.5,11.5,0,0,0,.42,2.86c1-.45,2.27-.65,2.79-1.4a63.31,63.31,0,0,0,5.85-9.4c4.18-9.06,6-18.77,7.46-28.58,2-13.84,4.11-27.67,6.09-41.52.44-3,.48-6.14.82-9.21a5.26,5.26,0,0,0-2.84-5.72A17.41,17.41,0,0,1,80,100.86c1.74-1.09,61.67-4.41,68.32-3.86q-1.31,12.23-2.62,24.47l.63.26c.59-.66,1.22-1.3,1.76-2,4.88-6.36,10-12.52,16.62-17.15,12.3-8.61,25.84-10,39.85-5.43,9.47,3.08,14.6,10.33,14.88,20.21.18,6.51-.66,13.08-1.47,19.58-2.37,19.06-5,38.09-7.45,57.13-.17,1.25-.42,2.5-.58,3.75-.41,3.24.51,4.53,3.67,5.22l2.26.51a4,4,0,0,1-.64,1.07c-10.67,8.11-22,15.07-35.35,17.68a41.7,41.7,0,0,1-13.42.45c-10.7-1.47-17.43-9.54-18.71-21.14-.83-7.52.58-14.81,1.7-22.15L157.56,126c.44-2.88-.71-3.89-3.3-2.65a31.72,31.72,0,0,0-7.06,4.31c-10.84,9.47-21.67,19-32.25,28.71-17.39,16-34.49,32.38-51.93,48.37a104.44,104.44,0,0,1-15,11.23c-8.6,5.43-18.18,6.78-28.11,5C6.05,218.41-1.55,207.56.26,192.66c2.24-18.51,4.74-37,7.06-55.51,1.2-9.56,2.18-19.16,3.44-28.72.35-2.7-.46-4.4-2.8-5.59a25,25,0,0,1-2.3-1.55Z"/>
    <path d="M562.05,100.21c22.47-1.71,45-2.18,67.87-3.5-.58,4.66-1.12,9-1.67,13.35q-5.36,42.58-10.7,85.17a12.18,12.18,0,0,0,.37,2.89c1-.43,2.28-.6,2.79-1.33a62.83,62.83,0,0,0,5.87-9.39c4.19-9,6-18.77,7.47-28.57,2-13.85,4.12-27.68,6.1-41.52.44-3.13.49-6.31.82-9.45a5.13,5.13,0,0,0-2.79-5.51,4.43,4.43,0,0,1-1.78-2.09,34,34,0,0,1,3.74-.54q27-1.26,54.09-2.46l10.39-.48c-.91,8.44-1.79,16.56-2.66,24.67l.59.28,1.77-2c4.66-5,8.91-10.56,14.06-15,11.91-10.4,26-12.07,40.83-8.15,10.41,2.75,16.55,10.68,16.52,21.43,0,7.94-1.1,15.91-2.09,23.82-2.35,18.58-4.93,37.13-7.4,55.7-.49,3.65.36,4.79,4,5.58.59.12,1.15.33,1.94.57a6.79,6.79,0,0,1-.87,1.07c-10.51,7.91-21.64,14.62-34.68,17.53a34.71,34.71,0,0,1-15.77.21c-9.55-2.29-15.67-10-16.89-20.83-.85-7.51.57-14.81,1.68-22.14q4.07-26.73,8.14-53.45c.45-3-.74-4-3.47-2.64a31.91,31.91,0,0,0-7,4.36c-10.72,9.37-21.43,18.75-31.89,28.4-17.45,16.09-34.61,32.49-52.1,48.53a102.17,102.17,0,0,1-15,11.23c-9.21,5.75-19.41,7.09-29.94,4.58-12.83-3.06-19.61-13.62-17.89-27.81,2.25-18.59,4.76-37.16,7.09-55.75,1.2-9.48,2.16-19,3.41-28.48.35-2.68-.39-4.41-2.74-5.62a20.11,20.11,0,0,1-2.4-1.71Z"/>
    <path d="M461.13,225c-13.58-.33-26.43-3.21-38.3-9.86-29.39-16.48-39-50-22.51-79.37,11.16-19.88,28.5-32.14,50.14-38.34,21.46-6.16,42.53-5,62.42,5.75,16.66,9,27.41,22.8,30.36,41.8,2.66,17.14-2.37,32.46-12.66,46.06-13.85,18.3-32.67,28.52-55.07,32.44C470.77,224.25,465.92,224.45,461.13,225Zm19.59-111.7c-.47-4.12-.84-9.15-1.73-14.1a4.78,4.78,0,0,0-3.15-3.2,5.61,5.61,0,0,0-4.31,2.07,17.46,17.46,0,0,0-3.09,6.58c-1.61,7.56-3.24,15.15-4.19,22.81q-3.81,30.69-7,61.47c-.85,8.39-.93,16.86-1.12,25.3a14.5,14.5,0,0,0,1.45,5.92,3.87,3.87,0,0,0,4.94,2.37,3.8,3.8,0,0,0,1.69-1.18,13.53,13.53,0,0,0,3.26-5.39,119,119,0,0,0,3.72-16.37c1.94-14.81,3.54-29.66,5.16-44.5C477.86,141.46,479.21,127.86,480.72,113.29Z"/>
  </g>
</svg>
